<svg width="44" height="44" viewBox="0 0 44 44" fill="none" xmlns="http://www.w3.org/2000/svg">
<path d="M13.6489 14.4561C15.2932 14.4561 16.631 13.1184 16.631 11.4743C16.631 9.83013 15.2933 8.49243 13.6489 8.49243H9.50709V7.47931H13.6489V7.47939C15.2932 7.47939 16.631 6.14169 16.631 4.49736C16.631 2.85304 15.2933 1.51551 13.6489 1.51551H4.82255C2.16339 1.51559 0 3.67881 0 6.33797V37.5523C0 40.2114 2.16339 42.3747 4.82255 42.3747H7.8552C7.90685 42.3747 7.95755 42.3709 8.00705 42.3636H13.6489C15.2932 42.3636 16.631 41.0259 16.631 39.3817C16.631 37.7376 15.2933 36.3999 13.6489 36.3999H9.50709V35.3868H13.6023C15.2423 35.3868 16.5718 34.1242 16.6289 32.5127C16.658 31.6955 16.3619 30.9219 15.7949 30.3344C15.2278 29.7467 14.4656 29.4229 13.6489 29.4229H9.50709V28.4099H13.6023C15.2421 28.4099 16.5716 27.1475 16.6289 25.5358C16.658 24.7186 16.3618 23.945 15.7949 23.3575C15.2278 22.7697 14.4656 22.446 13.6489 22.446H9.50709V21.433H13.6023C15.2423 21.433 16.5718 20.1704 16.629 18.5589C16.658 17.7416 16.3617 16.968 15.7948 16.3805C15.2277 15.7928 14.4655 15.4691 13.649 15.4691H9.50718V14.4561H13.6489V14.4561ZM8.47464 17.534H13.6489C13.9001 17.534 14.1345 17.6335 14.3089 17.8143C14.4832 17.995 14.5743 18.2333 14.5653 18.4854C14.548 18.9721 14.116 19.3681 13.6022 19.3681H8.47464C7.90453 19.3681 7.44219 19.8303 7.44219 20.4005V23.4785C7.44219 24.0487 7.90453 24.5109 8.47464 24.5109H13.6489C13.9001 24.5109 14.1345 24.6104 14.3091 24.7913C14.4834 24.9719 14.5745 25.2102 14.5654 25.4623C14.5481 25.949 14.1159 26.3451 13.6024 26.3451H8.47464C7.90453 26.3451 7.44219 26.8073 7.44219 27.3775V30.4555C7.44219 31.0257 7.90453 31.4879 8.47464 31.4879H13.6489C13.9001 31.4879 14.1345 31.5874 14.3091 31.7683C14.4834 31.9489 14.5745 32.1872 14.5654 32.4394C14.5481 32.9261 14.1161 33.3221 13.6024 33.3221H8.47464C7.90453 33.3221 7.44219 33.7843 7.44219 34.3545V37.4325C7.44219 38.0027 7.90453 38.4649 8.47464 38.4649H13.6489C14.1546 38.4649 14.5661 38.8763 14.5661 39.382C14.5661 39.8876 14.1548 40.299 13.6489 40.299H7.8552C7.80355 40.299 7.75285 40.3028 7.70335 40.3101H4.82255C3.30198 40.3101 2.06491 39.073 2.06491 37.5525V6.33797C2.06491 4.81748 3.30198 3.58041 4.82255 3.58041H13.6489C14.1546 3.58041 14.5661 3.99171 14.5661 4.49745C14.5661 5.00311 14.1548 5.41458 13.6489 5.41458H8.47464C7.90453 5.41458 7.44219 5.87683 7.44219 6.44703V9.52496C7.44219 10.0951 7.90453 10.5573 8.47464 10.5573H13.6489C14.1546 10.5573 14.5661 10.9686 14.5661 11.4744C14.5661 11.98 14.1548 12.3914 13.6489 12.3914H8.47464C7.90453 12.3914 7.44219 12.8537 7.44219 13.4239V16.5018C7.44219 17.0718 7.90453 17.534 8.47464 17.534Z" fill="#F0F8FF"/>
<path d="M37.0618 28.3201L35.0127 24.3209L40.7663 10.3896C41.4649 8.8306 41.517 7.09285 40.9129 5.49416C40.3065 3.89005 39.1118 2.61809 37.5487 1.91254C37.2974 1.7991 37.0112 1.79094 36.7539 1.88968C36.4966 1.98851 36.2895 2.18608 36.1787 2.43839L30.7818 14.7278L25.3847 2.43865C25.2739 2.18634 25.0668 1.98868 24.8095 1.88994C24.5521 1.79111 24.2657 1.79927 24.0147 1.9128C20.7935 3.36677 19.3529 7.16667 20.7972 10.3899L26.5506 24.3211L24.5016 28.3203C20.6626 28.3984 17.5634 31.5433 17.5634 35.4005C17.5634 39.3066 20.7411 42.4845 24.6472 42.4845C27.266 42.4845 29.5557 41.0551 30.7816 38.9366C32.0075 41.0551 34.2972 42.4845 36.9159 42.4845C40.822 42.4845 43.9999 39.3066 43.9999 35.4005C44 31.5432 40.9007 28.3984 37.0618 28.3201ZM24.6473 40.4194C21.8798 40.4194 19.6283 38.1679 19.6283 35.4003C19.6283 32.6328 21.8799 30.3812 24.6473 30.3812C24.7796 30.3812 24.9104 30.3879 25.0401 30.3981C25.0413 30.3982 25.0425 30.3985 25.0436 30.3986C25.2843 30.4174 25.5218 30.4535 25.7547 30.5059C25.7672 30.5087 25.7796 30.5116 25.792 30.5145C25.9418 30.5494 26.0894 30.5916 26.235 30.6402C26.2639 30.6499 26.2928 30.6593 26.3215 30.6695C26.357 30.6821 26.3924 30.6953 26.4277 30.7086C26.4637 30.7223 26.4995 30.7366 26.5353 30.751C26.5648 30.763 26.5946 30.7749 26.6239 30.7875C26.6863 30.8143 26.7483 30.8422 26.8094 30.8714C26.8279 30.8803 26.8462 30.8899 26.8647 30.899C26.9129 30.9229 26.9608 30.9472 27.0081 30.9727C27.0296 30.9843 27.051 30.996 27.0723 31.0077C27.1198 31.034 27.167 31.0612 27.2135 31.0891C27.2298 31.0988 27.2461 31.1083 27.2623 31.1182C27.3261 31.1573 27.3892 31.1975 27.451 31.2392C27.4519 31.2398 27.4526 31.2404 27.4535 31.241C27.5154 31.2829 27.576 31.3262 27.6359 31.3707C27.6457 31.3779 27.6554 31.3854 27.6652 31.3927C27.7079 31.425 27.7498 31.4584 27.7914 31.4921C27.8549 31.5432 27.917 31.5958 27.9778 31.6498C28.0061 31.6749 28.034 31.7005 28.0618 31.7262C28.1204 31.7806 28.1776 31.8365 28.2336 31.8937C28.2619 31.9227 28.29 31.9522 28.3177 31.9819C28.3676 32.0355 28.4162 32.0902 28.4637 32.1459C28.4894 32.176 28.5152 32.206 28.5403 32.2367C28.5946 32.3034 28.647 32.3715 28.6977 32.4409C28.7237 32.4763 28.749 32.5121 28.774 32.5481C28.799 32.5841 28.8232 32.6202 28.8468 32.6563C29.3642 33.4456 29.6665 34.388 29.6665 35.4002C29.6664 38.1679 27.4147 40.4194 24.6473 40.4194ZM31.6952 29.767C31.5167 29.4278 31.1648 29.2155 30.7815 29.2155C30.3982 29.2155 30.0464 29.4278 29.8678 29.7671L29.5783 30.3172C29.5325 30.2727 29.4843 30.2306 29.4372 30.1872C29.4215 30.1728 29.406 30.1581 29.3901 30.1438C29.3223 30.0824 29.253 30.0228 29.1826 29.964C29.1625 29.9472 29.1423 29.9303 29.1221 29.9137C29.0873 29.8855 29.0539 29.8557 29.0187 29.8281C29.0149 29.8251 29.0109 29.822 29.0071 29.8191C28.9731 29.7925 28.9379 29.7679 28.9035 29.742C28.8883 29.7306 28.8731 29.7193 28.8578 29.708C28.7833 29.6527 28.7079 29.5991 28.6316 29.547C28.6131 29.5343 28.5946 29.5219 28.5759 29.5095C28.5019 29.4601 28.4272 29.412 28.3515 29.3655C28.329 29.3517 28.3067 29.338 28.2842 29.3245C28.2119 29.2811 28.139 29.2392 28.0654 29.1987C28.0377 29.1834 28.01 29.1681 27.9822 29.1531C27.9136 29.1164 27.8444 29.0812 27.7747 29.0468C27.7403 29.0298 27.7056 29.0128 27.6708 28.9962C27.608 28.9664 27.5447 28.9381 27.4811 28.9102C27.438 28.8913 27.3949 28.8724 27.3513 28.8544C27.2965 28.8318 27.2414 28.8103 27.1861 28.7892C27.1326 28.7686 27.0792 28.748 27.0251 28.7287C26.9809 28.7129 26.9363 28.6983 26.8918 28.6835C26.8262 28.6615 26.7604 28.6395 26.6938 28.6194C26.6864 28.6172 26.6791 28.6144 26.6717 28.6123L28.6054 24.8386C28.7433 24.5695 28.7563 24.2533 28.6409 23.9737L22.6995 9.58685C22.6952 9.57653 22.6908 9.56639 22.6862 9.55625C21.8463 7.69536 22.4266 5.54847 23.9643 4.33976L29.8361 17.7109C30.0009 18.086 30.3718 18.3282 30.7814 18.3282C31.1911 18.3282 31.5621 18.086 31.7267 17.7109L37.5993 4.33864C38.2186 4.82359 38.6958 5.46992 38.9812 6.22446C39.3925 7.31268 39.3555 8.49578 38.8768 9.55625C38.8722 9.56639 38.8678 9.57662 38.8635 9.58693L32.922 23.9736C32.8066 24.2531 32.8195 24.5694 32.9575 24.8385L34.8911 28.612C34.8831 28.6144 34.8753 28.6173 34.8673 28.6198C34.8038 28.639 34.7409 28.6599 34.6782 28.6809C34.6299 28.6969 34.5814 28.7128 34.5336 28.73C34.4842 28.7476 34.4355 28.7664 34.3866 28.7852C34.3257 28.8085 34.265 28.832 34.2048 28.8571C34.1674 28.8725 34.1305 28.8888 34.0935 28.9049C34.0227 28.9357 33.9525 28.9673 33.8828 29.0003C33.8553 29.0133 33.8281 29.0269 33.8008 29.0402C33.7231 29.0783 33.6461 29.1177 33.5697 29.1587C33.5498 29.1694 33.5301 29.1803 33.5104 29.1911C33.4285 29.2361 33.3474 29.2827 33.2673 29.331C33.2526 29.3398 33.2378 29.3489 33.2232 29.358C33.1402 29.4089 33.0582 29.4614 32.9771 29.5158C32.9648 29.5241 32.9526 29.5323 32.9404 29.5408C32.8591 29.5961 32.7789 29.6532 32.6997 29.712C32.6876 29.7209 32.6757 29.7298 32.6636 29.7389C32.6278 29.7659 32.5913 29.7916 32.556 29.8194C32.5546 29.8204 32.5527 29.822 32.5507 29.8236C32.5487 29.8251 32.5467 29.8267 32.5447 29.8281C32.5098 29.8556 32.4766 29.885 32.4422 29.9131C32.4211 29.9304 32.4002 29.9477 32.3794 29.965C32.3098 30.0231 32.2413 30.0823 32.1741 30.143C32.1572 30.1582 32.1408 30.1736 32.1242 30.189C32.0777 30.2317 32.0302 30.2734 31.9848 30.3175L31.6952 29.767ZM36.916 40.4194C34.1485 40.4194 31.897 38.1679 31.897 35.4003C31.897 34.3878 32.1994 33.445 32.7172 32.6556C32.7401 32.6207 32.7633 32.5859 32.7873 32.5512C32.812 32.5156 32.8371 32.4801 32.8627 32.4451C32.9173 32.3703 32.9735 32.2968 33.032 32.2252C33.0516 32.2013 33.0718 32.1782 33.0919 32.1548C33.1427 32.0948 33.1951 32.0361 33.2488 31.9786C33.2753 31.9502 33.3021 31.922 33.3291 31.8943C33.3885 31.8337 33.4493 31.7743 33.5117 31.7165C33.5368 31.6934 33.5622 31.6706 33.5876 31.648C33.6493 31.5931 33.7123 31.5399 33.7769 31.4881C33.8184 31.4548 33.86 31.4214 33.9026 31.3893C33.9098 31.3838 33.917 31.3784 33.9243 31.373C34.0483 31.2805 34.1769 31.1935 34.3094 31.1127C34.3164 31.1084 34.3234 31.1044 34.3305 31.1002C34.3873 31.0659 34.4449 31.0329 34.5032 31.0008C34.5174 30.993 34.5315 30.9852 34.5458 30.9776C34.6032 30.9467 34.6613 30.9169 34.72 30.8882C34.7296 30.8835 34.7389 30.8786 34.7484 30.874C34.8131 30.8429 34.8787 30.8134 34.9449 30.785C34.9685 30.7748 34.9923 30.7655 35.0161 30.7558C35.0577 30.7387 35.0995 30.7222 35.1416 30.7062C35.1735 30.6941 35.2056 30.6822 35.2377 30.6708C35.2705 30.6591 35.3037 30.6482 35.3368 30.6372C35.4284 30.607 35.5205 30.5785 35.6138 30.5536C35.6143 30.5535 35.6147 30.5535 35.6152 30.5532C35.6669 30.5394 35.7188 30.5267 35.771 30.5146C35.7836 30.5116 35.7961 30.5088 35.8088 30.5059C36.0417 30.4536 36.279 30.4174 36.5197 30.3987C36.5209 30.3986 36.5221 30.3983 36.5234 30.3982C36.6531 30.388 36.7838 30.3813 36.9161 30.3813C39.6836 30.3813 41.9352 32.6329 41.9352 35.4004C41.9352 38.168 39.6834 40.4194 36.916 40.4194Z" fill="#F0F8FF"/>
<path d="M36.916 32.0237C35.0541 32.0237 33.5393 33.5385 33.5393 35.4003C33.5393 37.2622 35.0542 38.777 36.916 38.777C38.7778 38.777 40.2926 37.2622 40.2926 35.4003C40.2926 33.5385 38.7779 32.0237 36.916 32.0237ZM36.916 36.7122C36.1927 36.7122 35.6042 36.1237 35.6042 35.4003C35.6042 34.677 36.1927 34.0885 36.916 34.0885C37.6393 34.0885 38.2278 34.677 38.2278 35.4003C38.2278 36.1237 37.6392 36.7122 36.916 36.7122Z" fill="#F0F8FF"/>
<path d="M24.6473 32.0237C22.7854 32.0237 21.2706 33.5385 21.2706 35.4003C21.2706 37.2622 22.7855 38.777 24.6473 38.777C26.5091 38.777 28.024 37.2622 28.024 35.4003C28.024 33.5385 26.5091 32.0237 24.6473 32.0237ZM24.6473 36.7122C23.924 36.7122 23.3355 36.1237 23.3355 35.4003C23.3355 34.677 23.924 34.0885 24.6473 34.0885C25.3706 34.0885 25.9591 34.677 25.9591 35.4003C25.9591 36.1237 25.3705 36.7122 24.6473 36.7122Z" fill="#F0F8FF"/>
<path d="M4.75827 5.78669C4.18816 5.78669 3.72581 6.24895 3.72581 6.81914V33.6361C3.72581 34.2063 4.18816 34.6686 4.75827 34.6686C5.32838 34.6686 5.79072 34.2063 5.79072 33.6361V6.81905C5.79072 6.24886 5.32838 5.78669 4.75827 5.78669Z" fill="#F0F8FF"/>
<path d="M5.77011 36.9786C5.75773 36.9135 5.73694 36.8485 5.71115 36.7855C5.68537 36.7235 5.65332 36.6636 5.61619 36.6079C5.57915 36.5511 5.53576 36.4985 5.48815 36.451C5.44062 36.4035 5.38803 36.3602 5.33122 36.3219C5.27545 36.2848 5.21555 36.2538 5.15265 36.228C5.09069 36.2022 5.0258 36.1815 4.95972 36.1681C4.82651 36.1413 4.68919 36.1413 4.5571 36.1681C4.49101 36.1815 4.42596 36.2021 4.36297 36.228C4.30092 36.2527 4.24111 36.2848 4.18542 36.3219C4.12853 36.3601 4.07585 36.4035 4.02841 36.451C3.98089 36.4985 3.93758 36.5511 3.90037 36.6079C3.86212 36.6637 3.83119 36.7236 3.8054 36.7855C3.77962 36.8485 3.75891 36.9135 3.74662 36.9786C3.73313 37.0457 3.726 37.1138 3.726 37.1809C3.726 37.2481 3.73313 37.3162 3.74662 37.3823C3.75891 37.4484 3.77954 37.5134 3.8054 37.5754C3.83119 37.6384 3.86221 37.6983 3.90037 37.754C3.93749 37.8108 3.98089 37.8634 4.02841 37.9109C4.07594 37.9584 4.12853 38.0017 4.18542 38.0389C4.24119 38.0761 4.30092 38.1081 4.36297 38.1339C4.42596 38.1597 4.49101 38.1794 4.5571 38.1928C4.62319 38.2062 4.69133 38.2134 4.75845 38.2134C4.82548 38.2134 4.89372 38.2062 4.9598 38.1928C5.02589 38.1794 5.09094 38.1598 5.15273 38.1339C5.21572 38.1081 5.27562 38.0761 5.33131 38.0389C5.38812 38.0018 5.44071 37.9584 5.48823 37.9109C5.6803 37.7188 5.79082 37.4525 5.79082 37.1809C5.79073 37.1138 5.78351 37.0457 5.77011 36.9786Z" fill="#F0F8FF"/>
<path d="M30.8645 20.0039C30.2944 20.0039 29.8321 20.4662 29.8321 21.0364V26.8524C29.8321 27.4225 30.2944 27.8848 30.8645 27.8848C31.4347 27.8848 31.897 27.4225 31.897 26.8524V21.0364C31.8969 20.4662 31.4347 20.0039 30.8645 20.0039Z" fill="#F0F8FF"/>
</svg>
