<svg width="48" height="48" viewBox="0 0 48 48" fill="none" xmlns="http://www.w3.org/2000/svg">
<path d="M10.8497 15.4317H18.5566C18.9449 15.4317 19.2597 15.1169 19.2597 14.7286C19.2597 14.3403 18.9449 14.0255 18.5566 14.0255H11.0676L12.7542 8.93766C12.7712 8.88666 12.7861 8.84785 12.7985 8.8186H27.5996C27.6117 8.84756 27.626 8.88591 27.6424 8.93625L29.332 14.0255H21.8922C21.5039 14.0255 21.1891 14.3403 21.1891 14.7286C21.1891 15.1169 21.5039 15.4317 21.8922 15.4317H29.55C29.9578 15.4317 30.3762 15.2165 30.6162 14.8834C30.8265 14.5913 30.8841 14.2351 30.7747 13.9078L28.9783 8.49703C28.6865 7.6005 28.1505 7.41235 27.7524 7.41235H12.6473C12.0727 7.41235 11.6599 7.77553 11.4198 8.49347L9.62553 13.9064C9.51565 14.2351 9.57321 14.5913 9.78359 14.8834C10.0235 15.2165 10.4419 15.4317 10.8497 15.4317Z" fill="#F0F8FF"/>
<path d="M27.3689 19.5032V21.1292C27.3689 21.9975 28.0765 22.7039 28.9462 22.7039H33.2381C34.1078 22.7039 34.8155 21.9975 34.8155 21.1292V19.5032C34.8155 18.6349 34.1078 17.9285 33.2381 17.9285H28.9462C28.0765 17.9286 27.3689 18.635 27.3689 19.5032ZM33.4093 19.5032V21.1292C33.4093 21.2205 33.3309 21.2977 33.2382 21.2977H28.9463C28.8536 21.2977 28.7752 21.2205 28.7752 21.1292V19.5032C28.7752 19.4119 28.8536 19.3347 28.9463 19.3347H33.2382C33.3309 19.3348 33.4093 19.4119 33.4093 19.5032Z" fill="#F0F8FF"/>
<path d="M24.6898 19.4837H15.7098C15.3215 19.4837 15.0067 19.7985 15.0067 20.1868C15.0067 20.5751 15.3215 20.89 15.7098 20.89H24.6898C25.0782 20.89 25.3929 20.5751 25.3929 20.1868C25.3929 19.7985 25.0781 19.4837 24.6898 19.4837Z" fill="#F0F8FF"/>
<path d="M23.0998 22.2783H17.2999C16.9116 22.2783 16.5967 22.5931 16.5967 22.9814C16.5967 23.3697 16.9116 23.6845 17.2999 23.6845H23.0998C23.4881 23.6845 23.8029 23.3697 23.8029 22.9814C23.8029 22.5931 23.4881 22.2783 23.0998 22.2783Z" fill="#F0F8FF"/>
<path d="M5.58411 19.5032V21.1292C5.58411 21.9975 6.29164 22.7039 7.16145 22.7039H11.4534C12.3231 22.7039 13.0308 21.9975 13.0308 21.1292V19.5032C13.0308 18.6349 12.3231 17.9285 11.4534 17.9285H7.16145C6.29173 17.9286 5.58411 18.635 5.58411 19.5032ZM6.99036 19.5032C6.99036 19.4119 7.06864 19.3347 7.16145 19.3347H11.4534C11.5461 19.3347 11.6245 19.4119 11.6245 19.5032V21.1292C11.6245 21.2205 11.5461 21.2977 11.4534 21.2977H7.16145C7.06873 21.2977 6.99036 21.2205 6.99036 21.1292V19.5032Z" fill="#F0F8FF"/>
<path d="M46.4855 30.3676H46.0803C45.9202 29.8676 45.7179 29.3812 45.4751 28.9129L45.7607 28.627C46.046 28.3426 46.2031 27.9631 46.2031 27.5585C46.2031 27.1537 46.046 26.7743 45.7607 26.4899L43.8456 24.5806C43.2562 23.9932 42.2973 23.9933 41.7091 24.5797L41.4192 24.8675C40.9486 24.6247 40.4597 24.4225 39.957 24.2627V23.8612C39.957 23.1229 39.4239 22.5075 38.7222 22.376C38.7222 22.376 38.7244 21.0559 38.7265 20.8777C38.7431 19.4798 38.7573 18.2723 37.6671 16.8926C39.1999 16.6867 40.386 15.3738 40.386 13.7889C40.386 12.0631 38.9774 10.659 37.246 10.659H33.6546L32.0583 6.03234C31.697 4.99406 30.3734 3.89062 28.6321 3.89062H11.7649C10.0201 3.89062 8.6985 4.99519 8.34094 6.03403L6.74512 10.659H3.15094C1.42097 10.659 0.0135937 12.0631 0.0135937 13.7889C0.0135937 15.3745 1.19972 16.6879 2.73234 16.8929C1.64062 18.2746 1.65441 19.4843 1.67053 20.8849C1.6725 21.0608 1.67466 21.2427 1.67466 21.4328L1.68187 25.9468C0.708844 26.2472 0 27.1534 0 28.2218V28.9245C0 29.9919 0.709312 30.8973 1.68291 31.1972V33.9878C1.68291 35.1009 2.59031 36.0065 3.70556 36.0065H7.23525C8.3505 36.0065 9.25791 35.1009 9.25791 33.9878V31.3027H15.5732C15.9615 31.3027 16.2763 30.9878 16.2763 30.5995C16.2763 30.2112 15.9615 29.8964 15.5732 29.8964H8.55478H2.38603C1.84575 29.8964 1.40625 29.4604 1.40625 28.9245V28.2218C1.40625 27.6844 1.84575 27.2471 2.38659 27.2471H2.38716L28.0103 27.2264C27.9862 27.3342 27.9727 27.4452 27.9727 27.5586C27.9727 27.9644 28.1312 28.3446 28.416 28.6261L28.7026 28.913C28.5369 29.2326 28.3915 29.5612 28.2641 29.8964H18.909C18.5207 29.8964 18.2059 30.2112 18.2059 30.5995C18.2059 30.9878 18.5207 31.3027 18.909 31.3027H26.2929C26.2191 31.4806 26.1777 31.6753 26.1777 31.8797V34.5788C26.1777 35.4127 26.8571 36.0909 27.6922 36.0909H28.0973C28.2576 36.5924 28.4598 37.0793 28.702 37.5472L28.419 37.8293C28.1311 38.114 27.9725 38.4941 27.9725 38.8999C27.9725 39.3057 28.131 39.686 28.4168 39.9685L30.3298 41.8756C30.6146 42.1621 30.995 42.3199 31.4006 42.32H31.4007C31.8064 42.32 32.1868 42.1622 32.4695 41.8778L32.7566 41.5914C33.2269 41.8337 33.7163 42.0359 34.2203 42.1959V42.5974C34.2203 43.4311 34.8997 44.1094 35.7349 44.1094H38.4423C39.2773 44.1094 39.9567 43.4311 39.9567 42.5974V42.1958C40.4594 42.036 40.9484 41.8337 41.4189 41.591L41.7056 41.8757C41.9906 42.1622 42.371 42.32 42.7766 42.32C43.1822 42.32 43.5625 42.1622 43.8453 41.8778L45.7604 39.9685C46.0457 39.6841 46.2028 39.3046 46.2028 38.8999C46.2028 38.4953 46.0457 38.1157 45.7604 37.8315L45.4753 37.5472C45.7177 37.0793 45.9199 36.5922 46.0801 36.0909H46.4852C47.3203 36.0909 47.9997 35.4127 47.9997 34.5788V31.8797C48 31.0459 47.3206 30.3676 46.4855 30.3676ZM7.85166 31.3027V33.9878C7.85166 34.3198 7.56937 34.6002 7.23525 34.6002H3.70556C3.37144 34.6002 3.08916 34.3198 3.08916 33.9878V31.3027H7.85166ZM37.246 12.0653C38.202 12.0653 38.9797 12.8385 38.9797 13.7889C38.9797 14.7409 38.202 15.5153 37.246 15.5153H36.3165L34.7988 13.9754L34.1397 12.0653H37.246ZM9.67041 6.49219C9.81384 6.07538 10.5755 5.29688 11.7649 5.29688H28.6321C29.8203 5.29688 30.5848 6.07678 30.7295 6.49266L33.5214 14.5847C33.5557 14.6839 33.6117 14.7742 33.6853 14.8489L35.5219 16.7123C35.5237 16.714 35.5254 16.7159 35.5272 16.7177L36.5837 17.7896C37.3452 18.7671 37.3358 19.5583 37.3204 20.8609C37.3182 21.0444 37.316 22.349 37.316 22.349H35.7352C34.9 22.349 34.2206 23.0273 34.2206 23.8611V24.2625C33.7166 24.4225 33.2272 24.6247 32.7569 24.867L32.4697 24.5806C31.8803 23.9931 30.9215 23.9932 30.3322 24.5806L29.0898 25.8192L3.08803 25.8402L3.081 21.4315C3.081 21.237 3.07884 21.0498 3.07678 20.8686C3.06178 19.5626 3.05269 18.7693 3.81609 17.7896L4.87303 16.7172C4.87444 16.7158 4.87575 16.7144 4.87716 16.713L6.71437 14.8489C6.78806 14.7742 6.84403 14.6839 6.87825 14.5847L9.67041 6.49219ZM1.41994 13.7889C1.41994 12.8385 2.19647 12.0653 3.15103 12.0653H6.25997L5.60091 13.9754L4.08319 15.5153H3.15094C2.19647 15.5153 1.41994 14.7409 1.41994 13.7889ZM46.5937 34.5788C46.5937 34.6343 46.5421 34.6847 46.4855 34.6847H45.5512C45.23 34.6847 44.9496 34.9024 44.87 35.2135C44.6815 35.95 44.3884 36.6557 43.9987 37.3108C43.8341 37.5876 43.8787 37.9408 44.1067 38.1682L44.7678 38.8274C44.7917 38.8512 44.7967 38.88 44.7967 38.9C44.7967 38.9199 44.7917 38.9488 44.7678 38.9726L42.8505 40.8841C42.8261 40.9086 42.797 40.9137 42.7768 40.9137C42.7566 40.9137 42.7274 40.9086 42.6998 40.8809L42.036 40.2218C41.8089 39.9962 41.4582 39.9527 41.1827 40.1154C40.5241 40.5049 39.8168 40.7972 39.0806 40.9844C38.7689 41.0636 38.5507 41.3442 38.5507 41.6659V42.5974C38.5507 42.6548 38.5012 42.7031 38.4426 42.7031H35.7352C35.6765 42.7031 35.6269 42.6547 35.6269 42.5974V41.6659C35.6269 41.3443 35.4087 41.0637 35.0971 40.9844C34.3576 40.7963 33.6495 40.504 32.9923 40.1154C32.8809 40.0496 32.7574 40.0176 32.6347 40.0176C32.4532 40.0176 32.2734 40.0878 32.1381 40.2228L31.4748 40.884C31.4504 40.9085 31.4212 40.9136 31.401 40.9136C31.3807 40.9136 31.3517 40.9085 31.3251 40.8818L29.4078 38.9705C29.384 38.9469 29.3789 38.9191 29.3789 38.8999C29.3789 38.8807 29.384 38.8529 29.4098 38.8273L30.0711 38.1682C30.2992 37.9408 30.3436 37.5876 30.1789 37.3107C29.7893 36.6559 29.4963 35.9503 29.3077 35.2134C29.2282 34.9023 28.9477 34.6846 28.6266 34.6846H27.6922C27.6336 34.6846 27.584 34.6361 27.584 34.5788V31.8797C27.584 31.8223 27.6336 31.7739 27.6922 31.7739H28.6266C28.9477 31.7739 29.2282 31.5562 29.3077 31.2451C29.4954 30.5114 29.7886 29.8068 30.1789 29.1505C30.3433 28.8742 30.2992 28.5216 30.072 28.2941L29.4077 27.6292C29.3839 27.6057 29.3788 27.5779 29.3788 27.5587C29.3788 27.5394 29.3839 27.5116 29.4097 27.486L29.8778 27.0193C29.878 27.0191 29.8781 27.019 29.8783 27.0188L31.3251 25.5766C31.3646 25.537 31.4371 25.537 31.4768 25.5766L32.138 26.2357C32.365 26.4622 32.7165 26.5062 32.9921 26.3431C33.6495 25.9545 34.3576 25.6622 35.097 25.4741C35.4086 25.3949 35.6268 25.1143 35.6268 24.7927V23.8612C35.6268 23.8057 35.6784 23.7553 35.7351 23.7553H38.4425C38.4991 23.7553 38.5507 23.8057 38.5507 23.8612V24.7927C38.5507 25.1142 38.7688 25.3948 39.0805 25.4741C39.8167 25.6613 40.5239 25.9537 41.1827 26.3431C41.4579 26.5059 41.8088 26.4623 42.0359 26.2368L42.7008 25.5767C42.7405 25.5371 42.8129 25.5369 42.8527 25.5767L44.7678 27.486C44.7917 27.5098 44.7967 27.5387 44.7967 27.5587C44.7967 27.5786 44.7917 27.6075 44.7667 27.6323L44.1056 28.2942C43.8785 28.5217 43.8344 28.8743 43.9987 29.1505C44.3892 29.807 44.6823 30.5118 44.87 31.2451C44.9496 31.5562 45.23 31.7739 45.5512 31.7739H46.4855C46.5421 31.7739 46.5937 31.8244 46.5937 31.8797V34.5788Z" fill="#F0F8FF"/>
<path d="M37.0875 27.3715C35.88 27.3715 34.7196 27.7355 33.7321 28.424C33.4136 28.6461 33.3354 29.0843 33.5575 29.4028C33.7796 29.7214 34.2178 29.7997 34.5363 29.5775C35.2868 29.0543 36.169 28.7778 37.0875 28.7778C39.5515 28.7778 41.556 30.7753 41.556 33.2306C41.556 35.6844 39.5515 37.6808 37.0875 37.6808C34.6251 37.6808 32.6218 35.6844 32.6218 33.2306C32.6218 32.7233 32.7058 32.2285 32.8712 31.7597C33.0005 31.3935 32.8085 30.9919 32.4423 30.8626C32.0761 30.7334 31.6746 30.9253 31.5452 31.2915C31.3265 31.911 31.2155 32.5635 31.2155 33.2306C31.2155 36.4598 33.8497 39.087 37.0875 39.087C40.3269 39.087 42.9623 36.4598 42.9623 33.2306C42.9623 29.9999 40.3269 27.3715 37.0875 27.3715Z" fill="#F0F8FF"/>
</svg>
