<svg width="48" height="48" viewBox="0 0 48 48" fill="none" xmlns="http://www.w3.org/2000/svg">
<path d="M23.9999 14.2931C17.2018 14.2931 11.671 19.8239 11.671 26.6221C11.671 33.4203 17.2018 38.9509 23.9999 38.9509C30.798 38.9509 36.3288 33.4203 36.3288 26.6221C36.3288 19.8239 30.7982 14.2931 23.9999 14.2931ZM23.9999 36.9879C18.2841 36.9879 13.634 32.3378 13.634 26.622C13.634 20.9061 18.2841 16.256 23.9999 16.256C29.7157 16.256 34.3658 20.9061 34.3658 26.622C34.3658 32.3378 29.7157 36.9879 23.9999 36.9879Z" fill="#F0F8FF"/>
<path d="M23.9999 18.9294C19.7582 18.9294 16.3073 22.3803 16.3073 26.6221C16.3073 30.8638 19.7582 34.3146 23.9999 34.3146C28.2416 34.3146 31.6926 30.8637 31.6926 26.6221C31.6926 22.3805 28.2416 18.9294 23.9999 18.9294ZM23.9999 32.4549C20.7836 32.4549 18.167 29.8384 18.167 26.6221C18.167 23.4058 20.7836 20.7892 23.9999 20.7892C27.2162 20.7892 29.8328 23.4058 29.8328 26.6221C29.8329 29.8384 27.2163 32.4549 23.9999 32.4549Z" fill="#F0F8FF"/>
<path d="M44.9005 10.7188H32.2625L30.9717 7.20319C30.5921 6.16922 29.5972 5.47462 28.4957 5.47462H19.5043C18.4028 5.47462 17.4079 6.16931 17.0283 7.20319L15.7374 10.7187H11.4431V9.34097C11.4431 8.23012 10.5395 7.32628 9.42844 7.32628H6.45469C5.34384 7.32628 4.44 8.23012 4.44 9.34097V10.7188H3.09947C1.39041 10.7188 0 12.1092 0 13.8183V39.4259C0 41.135 1.39041 42.5254 3.09947 42.5254H44.9005C46.6096 42.5254 48 41.135 48 39.4259V13.8183C48 12.1092 46.6096 10.7188 44.9005 10.7188ZM18.9679 7.91541C19.0501 7.69144 19.2656 7.54097 19.5042 7.54097H28.4956C28.7342 7.54097 28.9497 7.69144 29.0319 7.91541L30.0612 10.7188H17.9386L18.9679 7.91541ZM6.40313 9.34097C6.40313 9.31256 6.42628 9.28931 6.45478 9.28931H9.42853C9.45703 9.28931 9.48019 9.31256 9.48019 9.34097V10.7188H6.40313V9.34097ZM2.06634 18.5375H5.12663V34.7065H2.06634V18.5375ZM45.9336 39.4259C45.9337 39.9956 45.4702 40.459 44.9005 40.459H3.09947C2.52975 40.459 2.06634 39.9955 2.06634 39.4259V36.7729H6.15975C6.73031 36.7729 7.19287 36.3102 7.19287 35.7398V17.5043C7.19287 16.9339 6.73031 16.4712 6.15975 16.4712H2.06634V13.8182C2.06634 13.2485 2.52984 12.7851 3.09947 12.7851H31.5335C31.5362 12.7851 31.5387 12.7853 31.5413 12.7853C31.5436 12.7853 31.546 12.7851 31.5483 12.7851H44.9005C45.4702 12.7851 45.9337 13.2486 45.9337 13.8182V16.4712H41.8402C41.2696 16.4712 40.8071 16.9339 40.8071 17.5043V35.7398C40.8071 36.3102 41.2697 36.7729 41.8402 36.7729H45.9337V39.4259H45.9336ZM45.9337 34.7065H42.8734V18.5375H45.9337V34.7065Z" fill="#F0F8FF"/>
<path d="M23.9999 22.8211C21.904 22.8211 20.1989 24.5262 20.1989 26.6221C20.1989 27.1357 20.6152 27.5519 21.1287 27.5519C21.6423 27.5519 22.0585 27.1357 22.0585 26.6221C22.0585 25.5517 22.9294 24.6808 23.9998 24.6808C24.5134 24.6808 24.9296 24.2646 24.9296 23.751C24.9296 23.2374 24.5136 22.8211 23.9999 22.8211Z" fill="#F0F8FF"/>
</svg>
