<svg width="48" height="48" viewBox="0 0 48 48" fill="none" xmlns="http://www.w3.org/2000/svg">
<g clip-path="url(#clip0)">
<path d="M43.3123 23.9041H40.7214C38.1367 23.9041 36.0337 26.007 36.0337 28.5918V28.8669H34.9994C34.4816 28.8669 34.0619 29.2868 34.0619 29.8044C34.0619 30.3221 34.4816 30.7419 34.9994 30.7419H36.0337V35.484H27.6522V30.7419H28.3742C28.892 30.7419 29.3117 30.3221 29.3117 29.8044C29.3117 29.2868 28.892 28.8669 28.3742 28.8669H27.6522V28.5918C27.6522 26.007 25.5493 23.9041 22.9645 23.9041H20.3737C20.1509 23.9041 19.9321 23.9208 19.7175 23.951L21.9585 21.7099L22.153 21.9044C23.0384 22.7897 24.2156 23.2775 25.4677 23.2775C26.7199 23.2775 27.8971 22.7899 28.7825 21.9044L30.6145 20.0724C32.4422 18.2446 32.4422 15.2707 30.6145 13.4429L30.0583 12.8867C29.6922 12.5207 29.0986 12.5206 28.7324 12.8868C28.3663 13.2529 28.3663 13.8465 28.7324 14.2127L29.2886 14.7689C30.3853 15.8655 30.3853 17.6499 29.2886 18.7465L27.4566 20.5786C26.9254 21.1099 26.219 21.4024 25.4677 21.4024C24.7164 21.4024 24.0101 21.1099 23.4789 20.5786L20.2818 17.3814L17.9422 15.0419C17.9422 15.0418 17.942 15.0416 17.9419 15.0415L17.0847 14.1845C16.5535 13.6533 16.2609 12.947 16.2609 12.1957C16.2609 11.4444 16.5535 10.738 17.0847 10.2069L18.9168 8.37479C20.0134 7.27829 21.7977 7.2781 22.8944 8.37479L23.6852 9.16557C24.0513 9.53157 24.6449 9.53157 25.0112 9.16557C25.3773 8.79948 25.3773 8.20585 25.0112 7.83957L24.2204 7.04879C22.3926 5.22113 19.4187 5.22113 17.5911 7.04879L15.759 8.88085C14.8736 9.76623 14.3859 10.9434 14.3859 12.1956C14.3859 13.4478 14.8735 14.6249 15.759 15.5103L15.9535 15.7048L10.0269 21.6315L9.8324 21.437C8.94703 20.5517 7.76981 20.0639 6.51769 20.0639C5.26547 20.0639 4.08834 20.5515 3.20297 21.437L1.3709 23.269C-0.456846 25.0968 -0.456846 28.0707 1.3709 29.8985L7.76503 36.2926C8.6789 37.2064 9.87937 37.6634 11.0797 37.6634C12.2802 37.6634 13.4806 37.2065 14.3946 36.2926L15.6861 35.001V37.6343C15.6861 40.219 17.789 42.3219 20.3737 42.3219H22.9646C25.5494 42.3219 27.6523 40.219 27.6523 37.6343V37.359H36.0338V37.6343C36.0338 40.219 38.1367 42.3219 40.7215 42.3219H43.3124C45.8972 42.3219 48.0001 40.219 48.0001 37.6343V28.5917C48 26.0069 45.8972 23.9041 43.3123 23.9041ZM15.6859 31.5984C15.5949 32.1612 15.3336 32.7016 14.9005 33.1347L13.0685 34.9668C11.972 36.0634 10.1874 36.0635 9.09084 34.9668L2.69672 28.5727C1.60003 27.4761 1.60003 25.6917 2.69672 24.595L4.52878 22.763C5.05997 22.2317 5.76637 21.9392 6.51759 21.9392C7.26881 21.9392 7.97522 22.2317 8.5064 22.763L11.7035 25.96L14.043 28.2996L14.0431 28.2997L14.9005 29.1571C15.3336 29.5901 15.5948 30.1305 15.6859 30.6935V31.5984ZM14.7059 26.3107L11.3527 22.9574L17.2793 17.0307L20.6326 20.384L14.7059 26.3107ZM25.7771 29.8045V36.4217V37.6344C25.7771 39.1854 24.5153 40.447 22.9645 40.447H20.3737C18.8227 40.447 17.5611 39.1853 17.5611 37.6344V31.719C17.6076 31.3384 17.6076 30.9534 17.5611 30.5727V28.5918C17.5611 27.0409 18.8228 25.7792 20.3737 25.7792H22.9645C24.5154 25.7792 25.7771 27.041 25.7771 28.5918V29.8045ZM46.1249 37.6344C46.1249 39.1854 44.8631 40.447 43.3123 40.447H40.7214C39.1705 40.447 37.9088 39.1853 37.9088 37.6344V36.4216V29.8044V28.5917C37.9088 27.0408 39.1706 25.7791 40.7214 25.7791H43.3123C44.8632 25.7791 46.1249 27.0409 46.1249 28.5917V37.6344Z" fill="#F0F8FF"/>
<path d="M32.3806 29.1412C32.2062 28.9669 31.9653 28.8665 31.7178 28.8665C31.4712 28.8665 31.2293 28.9669 31.055 29.1412C30.8806 29.3155 30.7803 29.5574 30.7803 29.804C30.7803 30.0516 30.8806 30.2924 31.055 30.4668C31.2303 30.6421 31.4712 30.7424 31.7178 30.7424C31.9653 30.7424 32.2062 30.6421 32.3806 30.4668C32.555 30.2924 32.6553 30.0515 32.6553 29.804C32.6553 29.5574 32.555 29.3155 32.3806 29.1412Z" fill="#F0F8FF"/>
<path d="M27.691 10.5198C27.5166 10.3445 27.2747 10.245 27.0281 10.245C26.7806 10.245 26.5397 10.3445 26.3653 10.5198C26.19 10.6941 26.0906 10.9359 26.0906 11.1825C26.0906 11.4292 26.19 11.67 26.3653 11.8453C26.5397 12.0198 26.7806 12.12 27.0281 12.12C27.2747 12.12 27.5166 12.0198 27.691 11.8453C27.8653 11.67 27.9656 11.4292 27.9656 11.1825C27.9657 10.9359 27.8654 10.6941 27.691 10.5198Z" fill="#F0F8FF"/>
<path d="M23.5301 36.6969H19.8077C19.2899 36.6969 18.8702 37.1167 18.8702 37.6344C18.8702 38.1521 19.2899 38.5719 19.8077 38.5719H23.5301C24.0479 38.5719 24.4676 38.1521 24.4676 37.6344C24.4677 37.1168 24.048 36.6969 23.5301 36.6969Z" fill="#F0F8FF"/>
<path d="M43.8781 36.6969H40.1558C39.638 36.6969 39.2183 37.1167 39.2183 37.6344C39.2183 38.1521 39.638 38.5719 40.1558 38.5719H43.8781C44.3959 38.5719 44.8156 38.1521 44.8156 37.6344C44.8157 37.1168 44.3959 36.6969 43.8781 36.6969Z" fill="#F0F8FF"/>
<path d="M13.5878 30.0566C13.2217 29.6905 12.6281 29.6905 12.2619 30.0566L9.6298 32.6887C9.2637 33.0548 9.2637 33.6484 9.6298 34.0147C9.81289 34.1977 10.0528 34.2893 10.2927 34.2893C10.5326 34.2893 10.7726 34.1977 10.9556 34.0147L13.5877 31.3826C13.9539 31.0165 13.9539 30.4228 13.5878 30.0566Z" fill="#F0F8FF"/>
<path d="M28.2885 15.356C27.9224 14.9899 27.3288 14.9899 26.9626 15.356L24.3305 17.9881C23.9644 18.3542 23.9644 18.9478 24.3305 19.3141C24.5136 19.4971 24.7535 19.5887 24.9934 19.5887C25.2333 19.5887 25.4733 19.4971 25.6563 19.3141L28.2884 16.682C28.6546 16.3159 28.6546 15.7222 28.2885 15.356Z" fill="#F0F8FF"/>
</g>
<defs>
<clipPath id="clip0">
<rect width="48" height="48" fill="white"/>
</clipPath>
</defs>
</svg>
