<svg width="48" height="48" viewBox="0 0 48 48" fill="none" xmlns="http://www.w3.org/2000/svg">
<g clip-path="url(#clip0)">
<path d="M47.2 13.6H0.8C0.3584 13.6 0 13.2424 0 12.8C0 10.5224 0.8864 8.3816 2.4968 6.772C3.4664 5.8024 4 4.5144 4 3.1432V2.3168C4 1.04 5.0392 0 6.3168 0H41.6832C42.9608 0 44 1.04 44 2.3168V3.1424C44 4.5136 44.5336 5.8016 45.5032 6.7712C47.1136 8.3816 48 10.5224 48 12.8C48 13.2424 47.6416 13.6 47.2 13.6ZM1.6456 12H46.3552C46.1784 10.452 45.4896 9.02 44.372 7.9032C43.1 6.6312 42.4 4.9408 42.4 3.1432V2.3168C42.4 1.9216 42.0784 1.6 41.6832 1.6H6.3168C5.9216 1.6 5.6 1.9216 5.6 2.3168V3.1424C5.6 4.94 4.9 6.6304 3.6288 7.9024C2.5104 9.02 1.8224 10.452 1.6456 12Z" fill="#F0F8FF"/>
<path d="M8.8 13.6C8.3584 13.6 8 13.2424 8 12.8V11.932C8 10.2616 8.4544 8.62079 9.3144 7.18798C10.0248 6.00398 10.4 4.64879 10.4 3.26799V0.799985C10.4 0.357585 10.7584 -1.52588e-05 11.2 -1.52588e-05C11.6416 -1.52588e-05 12 0.357585 12 0.799985V3.26799C12 4.93839 11.5456 6.57919 10.6856 8.01199C9.9752 9.19599 9.6 10.552 9.6 11.932V12.8C9.6 13.2424 9.2416 13.6 8.8 13.6Z" fill="#F0F8FF"/>
<path d="M16.8 13.6C16.3584 13.6 16 13.2424 16 12.8V11.64C16 10.2344 16.14 8.82239 16.416 7.44319C16.6704 6.16719 16.8 4.86079 16.8 3.55998V0.799985C16.8 0.357585 17.1584 -1.52588e-05 17.6 -1.52588e-05C18.0416 -1.52588e-05 18.4 0.357585 18.4 0.799985V3.55998C18.4 4.96559 18.26 6.37759 17.984 7.75679C17.7296 9.03279 17.6 10.3392 17.6 11.64V12.8C17.6 13.2424 17.2416 13.6 16.8 13.6Z" fill="#F0F8FF"/>
<path d="M24 13.6C23.5584 13.6 23.2 13.2424 23.2 12.8V0.799985C23.2 0.357585 23.5584 -1.52588e-05 24 -1.52588e-05C24.4416 -1.52588e-05 24.8 0.357585 24.8 0.799985V12.8C24.8 13.2424 24.4416 13.6 24 13.6Z" fill="#F0F8FF"/>
<path d="M31.2 13.6C30.7584 13.6 30.4 13.2424 30.4 12.8V11.64C30.4 10.3392 30.2704 9.03279 30.016 7.75679C29.74 6.37839 29.6 4.96559 29.6 3.55998V0.799985C29.6 0.357585 29.9584 -1.52588e-05 30.4 -1.52588e-05C30.8416 -1.52588e-05 31.2 0.357585 31.2 0.799985V3.55998C31.2 4.86079 31.3296 6.16719 31.584 7.44319C31.86 8.82159 32 10.2344 32 11.64V12.8C32 13.2424 31.6416 13.6 31.2 13.6Z" fill="#F0F8FF"/>
<path d="M39.2 13.6C38.7584 13.6 38.4 13.2424 38.4 12.8V11.932C38.4 10.5512 38.0248 9.19599 37.3144 8.01199C36.4544 6.57919 36 4.93839 36 3.26799V0.799985C36 0.357585 36.3584 -1.52588e-05 36.8 -1.52588e-05C37.2416 -1.52588e-05 37.6 0.357585 37.6 0.799985V3.26799C37.6 4.64879 37.9752 6.00398 38.6856 7.18798C39.5456 8.62079 40 10.2616 40 11.932V12.8C40 13.2424 39.6416 13.6 39.2 13.6Z" fill="#F0F8FF"/>
<path d="M5.2 18.4H4.4C1.9736 18.4 0 16.4256 0 14V12.8C0 12.3576 0.3584 12 0.8 12H8.8C9.2416 12 9.6 12.3576 9.6 12.8V14C9.6 16.4256 7.6264 18.4 5.2 18.4ZM1.6 13.6V14C1.6 15.544 2.856 16.8 4.4 16.8H5.2C6.744 16.8 8 15.544 8 14V13.6H1.6Z" fill="#F0F8FF"/>
<path d="M13.2 18.4H12.4C9.9736 18.4 8 16.4256 8 14V12.8C8 12.3576 8.3584 12 8.8 12H16.8C17.2416 12 17.6 12.3576 17.6 12.8V14C17.6 16.4256 15.6264 18.4 13.2 18.4ZM9.6 13.6V14C9.6 15.544 10.856 16.8 12.4 16.8H13.2C14.744 16.8 16 15.544 16 14V13.6H9.6Z" fill="#F0F8FF"/>
<path d="M35.6 18.4H34.8C32.3736 18.4 30.4 16.4256 30.4 14V12.8C30.4 12.3576 30.7584 12 31.2 12H39.2C39.6416 12 40 12.3576 40 12.8V14C40 16.4256 38.0264 18.4 35.6 18.4ZM32 13.6V14C32 15.544 33.256 16.8 34.8 16.8H35.6C37.144 16.8 38.4 15.544 38.4 14V13.6H32Z" fill="#F0F8FF"/>
<path d="M43.6 18.4H42.8C40.3736 18.4 38.4 16.4256 38.4 14V12.8C38.4 12.3576 38.7584 12 39.2 12H47.2C47.6416 12 48 12.3576 48 12.8V14C48 16.4256 46.0264 18.4 43.6 18.4ZM40 13.6V14C40 15.544 41.256 16.8 42.8 16.8H43.6C45.144 16.8 46.4 15.544 46.4 14V13.6H40Z" fill="#F0F8FF"/>
<path d="M20.4 18.4C17.9736 18.4 16 16.4256 16 14V12.8C16 12.3576 16.3584 12 16.8 12H24C24.4416 12 24.8 12.3576 24.8 12.8V14C24.8 16.4256 22.8264 18.4 20.4 18.4ZM17.6 13.6V14C17.6 15.544 18.856 16.8 20.4 16.8C21.944 16.8 23.2 15.544 23.2 14V13.6H17.6Z" fill="#F0F8FF"/>
<path d="M27.6 18.4C25.1736 18.4 23.2 16.4256 23.2 14V12.8C23.2 12.3576 23.5584 12 24 12H31.2C31.6416 12 32 12.3576 32 12.8V14C32 16.4256 30.0264 18.4 27.6 18.4ZM24.8 13.6V14C24.8 15.544 26.056 16.8 27.6 16.8C29.144 16.8 30.4 15.544 30.4 14V13.6H24.8Z" fill="#F0F8FF"/>
<path d="M44.8 48H3.20002C2.75842 48 2.40002 47.6424 2.40002 47.2V17.38C2.40002 17.12 2.52642 16.8768 2.73842 16.7272C2.95122 16.5768 3.22242 16.5392 3.46722 16.6264C3.79842 16.7432 4.10322 16.8 4.40002 16.8H5.20002C6.37362 16.8 7.42882 16.0496 7.82562 14.932C7.93922 14.6136 8.24082 14.4 8.57922 14.4H9.02002C9.35842 14.4 9.66082 14.6136 9.77362 14.932C10.1712 16.0496 11.2264 16.8 12.4 16.8H13.2C14.3736 16.8 15.4288 16.0496 15.8256 14.932C15.9392 14.6136 16.2408 14.4 16.5792 14.4H17.02C17.3584 14.4 17.6608 14.6136 17.7736 14.932C18.1712 16.0496 19.2264 16.8 20.4 16.8C21.5736 16.8 22.6288 16.0496 23.0256 14.932C23.1392 14.6136 23.4408 14.4 23.7792 14.4H24.22C24.5584 14.4 24.8608 14.6136 24.9736 14.932C25.3712 16.0496 26.4264 16.8 27.6 16.8C28.7736 16.8 29.8288 16.0496 30.2256 14.932C30.3392 14.6136 30.6408 14.4 30.9792 14.4H31.42C31.7584 14.4 32.0608 14.6136 32.1736 14.932C32.5712 16.0496 33.6264 16.8 34.8 16.8H35.6C36.7736 16.8 37.8288 16.0496 38.2256 14.932C38.3392 14.6136 38.6408 14.4 38.9792 14.4H39.42C39.7584 14.4 40.0608 14.6136 40.1736 14.932C40.5712 16.0496 41.6264 16.8 42.8 16.8H43.6C43.8968 16.8 44.2016 16.7432 44.5328 16.6256C44.7776 16.5376 45.0496 16.576 45.2616 16.7264C45.4736 16.8768 45.6 17.1192 45.6 17.38V47.2C45.6 47.6424 45.2416 48 44.8 48ZM4.00002 46.4H44V18.38C43.8664 18.3928 43.7336 18.4 43.6 18.4H42.8C41.3464 18.4 40.008 17.6712 39.2 16.5072C38.392 17.6712 37.0536 18.4 35.6 18.4H34.8C33.3464 18.4 32.008 17.6712 31.2 16.5072C30.392 17.6712 29.0536 18.4 27.6 18.4C26.1464 18.4 24.808 17.6712 24 16.5072C23.192 17.6712 21.8536 18.4 20.4 18.4C18.9464 18.4 17.608 17.6712 16.8 16.5072C15.992 17.6712 14.6536 18.4 13.2 18.4H12.4C10.9464 18.4 9.60802 17.6712 8.80002 16.5072C7.99202 17.6712 6.65362 18.4 5.20002 18.4H4.40002C4.26642 18.4 4.13362 18.3928 4.00002 18.38V46.4Z" fill="#F0F8FF"/>
<path d="M19.2 48H6.39998C5.95838 48 5.59998 47.6424 5.59998 47.2V21.6C5.59998 21.1576 5.95838 20.8 6.39998 20.8H19.2C19.6416 20.8 20 21.1576 20 21.6V47.2C20 47.6424 19.6416 48 19.2 48ZM7.19998 46.4H18.4V22.4H7.19998V46.4Z" fill="#F0F8FF"/>
<path d="M7.99998 28H6.39998C5.95838 28 5.59998 27.6424 5.59998 27.2C5.59998 26.7576 5.95838 26.4 6.39998 26.4H7.99998C8.44158 26.4 8.79998 26.7576 8.79998 27.2C8.79998 27.6424 8.44158 28 7.99998 28Z" fill="#F0F8FF"/>
<path d="M7.99998 42.4H6.39998C5.95838 42.4 5.59998 42.0424 5.59998 41.6C5.59998 41.1576 5.95838 40.8 6.39998 40.8H7.99998C8.44158 40.8 8.79998 41.1576 8.79998 41.6C8.79998 42.0424 8.44158 42.4 7.99998 42.4Z" fill="#F0F8FF"/>
<path d="M41.6 44.8H22.4C21.9584 44.8 21.6 44.4424 21.6 44V20.8C21.6 20.3576 21.9584 20 22.4 20H41.6C42.0416 20 42.4 20.3576 42.4 20.8V44C42.4 44.4424 42.0416 44.8 41.6 44.8ZM23.2 43.2H40.8V21.6H23.2V43.2Z" fill="#F0F8FF"/>
<path d="M16 36.8C15.5584 36.8 15.2 36.4424 15.2 36V34.4H13.6C13.1584 34.4 12.8 34.0424 12.8 33.6C12.8 33.1576 13.1584 32.8 13.6 32.8H16C16.4416 32.8 16.8 33.1576 16.8 33.6V36C16.8 36.4424 16.4416 36.8 16 36.8Z" fill="#F0F8FF"/>
<path d="M47.2 48H0.8C0.3584 48 0 47.6424 0 47.2C0 46.7576 0.3584 46.4 0.8 46.4H47.2C47.6416 46.4 48 46.7576 48 47.2C48 47.6424 47.6416 48 47.2 48Z" fill="#F0F8FF"/>
<path d="M32 41.6C29.7832 41.6 28.2648 41.1432 27.36 40.2024C26.3248 39.1256 26.3792 37.7048 26.4152 36.764L26.4256 36.44C26.448 35.3976 26.8312 34.4048 27.5344 33.568C28.7568 32.1128 29.156 30.7488 28.688 29.624C28.0968 28.2024 28.0456 26.7808 28.5392 25.5136C29.0608 24.176 29.7864 23.4848 29.8672 23.4104C30.1008 23.196 30.44 23.14 30.7304 23.2664C31.0208 23.3944 31.2088 23.6824 31.2088 23.9992C31.2088 25.488 31.6648 26.2672 32.0008 26.6384C32.332 26.2704 32.7896 25.4912 32.7896 23.9992C32.7896 23.6824 32.9776 23.3944 33.268 23.2664C33.5584 23.1392 33.8968 23.1952 34.1312 23.4104C34.212 23.4848 34.9376 24.176 35.4592 25.5136C35.9536 26.7808 35.9024 28.2016 35.3104 29.624C34.8432 30.748 35.2424 32.112 36.4648 33.568C37.1672 34.4048 37.5512 35.3976 37.5728 36.44L37.5832 36.764C37.6192 37.7048 37.6744 39.1256 36.6384 40.2024C35.7352 41.1432 34.2168 41.6 32 41.6ZM29.9712 26.2616C29.6272 27.3088 29.8816 28.3256 30.1664 29.0104C30.6632 30.204 30.8216 32.1424 28.76 34.5976C28.2936 35.1512 28.04 35.8008 28.0264 36.4744L28.0152 36.8256C27.9832 37.652 27.9504 38.5072 28.5136 39.0928C29.092 39.6944 30.2656 40 32 40C33.7344 40 34.908 39.6944 35.4872 39.0928C36.0504 38.5072 36.0176 37.652 35.9856 36.8256L35.9744 36.4744C35.96 35.8008 35.7064 35.152 35.2408 34.5976C33.1792 32.1424 33.3376 30.204 33.8344 29.0104C34.1184 28.3264 34.3736 27.3088 34.0296 26.2616C33.456 27.844 32.396 28.3512 32.3352 28.3792C32.1232 28.476 31.8792 28.476 31.6672 28.3792C31.6048 28.3512 30.5448 27.844 29.9712 26.2616Z" fill="#F0F8FF"/>
<path d="M31.9999 44.8C31.5583 44.8 31.2 44.4424 31.2 44V40.8C31.2 40.3576 31.5583 40 31.9999 40C32.4415 40 32.7999 40.3576 32.7999 40.8V44C32.7999 44.4424 32.4415 44.8 31.9999 44.8Z" fill="#F0F8FF"/>
</g>
<defs>
<clipPath id="clip0">
<rect width="48" height="48" fill="white"/>
</clipPath>
</defs>
</svg>
