<svg width="48" height="48" viewBox="0 0 48 48" fill="none" xmlns="http://www.w3.org/2000/svg">
<g clip-path="url(#clip0)">
<path d="M48 21.3V19C48 18.9642 47.998 18.929 47.9942 18.894C47.9935 18.8877 47.9921 18.8816 47.9914 18.8754C47.9878 18.8465 47.9835 18.8178 47.9774 18.7898C47.9758 18.7824 47.9735 18.7752 47.9718 18.7678C47.9654 18.741 47.9584 18.7147 47.9498 18.6887C47.947 18.68 47.9436 18.6715 47.9404 18.6629C47.9318 18.639 47.9228 18.6154 47.9124 18.5924C47.9109 18.589 47.9099 18.5854 47.9083 18.582L43.3999 8.78101V4.99979C43.3999 4.4476 42.9521 3.99976 42.3998 3.99976H5.60016C5.04787 3.99976 4.60013 4.4476 4.60013 4.99979V8.7811L0.0915 18.582C0.0899063 18.5854 0.088875 18.589 0.087375 18.5924C0.0769687 18.6154 0.0680625 18.639 0.0594375 18.6629C0.0563437 18.6715 0.052875 18.68 0.0499687 18.6887C0.0414375 18.7146 0.0345937 18.741 0.028125 18.7678C0.0263438 18.7751 0.024 18.7824 0.0224063 18.7898C0.0163125 18.8178 0.012 18.8465 0.0084375 18.8754C0.0076875 18.8816 0.006375 18.8877 0.005625 18.894C0.00196875 18.9289 0 18.9642 0 18.9999V21.3C0 24.0464 1.98787 26.3357 4.60013 26.8089V42.0002H1.00003C0.44775 42.0002 0 42.4479 0 43.0002C0 43.5524 0.44775 44.0003 1.00003 44.0003H5.60016H9.6H17.6002H42.4H47.0001C47.5523 44.0003 48.0001 43.5524 48.0001 43.0002C48.0001 42.4479 47.5524 42.0002 47.0001 42.0002H43.4001V26.8089C46.0121 26.3357 48 24.0464 48 21.3ZM45.4393 18H38.5613L36.3532 10.0001H41.7593L45.4393 18ZM29.5957 18.9083L28.7762 10.0001H34.2785L36.4866 18H32.7397C32.1875 18 31.7396 18.4477 31.7396 19C31.7396 19.5524 32.1875 20.0001 32.7397 20.0001H36.8V21.3C36.8 23.2851 35.185 24.9 33.2 24.9C31.2149 24.9 29.6 23.2851 29.6 21.3V19C29.5999 18.9694 29.5986 18.9388 29.5957 18.9083ZM6.60009 5.99982H41.4V7.99997H6.60009V5.99982ZM24.1345 18H20.496L21.232 10.0001H26.7678L27.6 19.0459V21.3C27.6 23.2851 25.985 24.9 23.9999 24.9C22.0148 24.9 20.3999 23.2851 20.3999 21.3V20H24.1346C24.6869 20 25.1347 19.5523 25.1347 18.9999C25.1347 18.4476 24.6868 18 24.1345 18ZM17.7706 20H18.3997V21.3C18.3997 23.2851 16.7848 24.9 14.7997 24.9C12.8147 24.9 11.1997 23.2851 11.1997 21.3V19.1355L13.7212 10.0001H19.2234L18.4876 18H17.7706C17.2184 18 16.7706 18.4477 16.7706 19C16.7706 19.5524 17.2184 20 17.7706 20ZM1.99997 21.3V20H4.70691C5.25909 20 5.70694 19.5523 5.70694 18.9999C5.70694 18.4476 5.25909 18 4.70691 18H2.56069L6.24084 10.0001H11.6464L9.23588 18.7339C9.21197 18.8206 9.19987 18.91 9.19987 18.9999V21.3C9.19987 23.2851 7.58512 24.9 5.60025 24.9C3.615 24.9 1.99997 23.2851 1.99997 21.3ZM16.6 35.5H15.6001C15.0478 35.5 14.6001 35.9479 14.6001 36.5001C14.6001 37.0524 15.0478 37.5001 15.6001 37.5001H16.6V42.0002H10.5999V30.9998H16.6V35.5ZM41.4 42.0002H18.6001V29.9997C18.6001 29.4475 18.1523 28.9997 17.6001 28.9997H9.59991C9.04763 28.9997 8.59988 29.4475 8.59988 29.9997V42.0002H6.60009V26.8089C8.08584 26.5398 9.369 25.6833 10.1997 24.4884C11.212 25.9445 12.896 26.9001 14.7997 26.9001C16.7035 26.9001 18.3875 25.9444 19.3998 24.4884C20.4121 25.9445 22.096 26.9001 23.9998 26.9001C25.9036 26.9001 27.5876 25.9444 28.5999 24.4884C29.6123 25.9445 31.2962 26.9001 33.2 26.9001C35.1037 26.9001 36.7877 25.9444 37.8 24.4884C38.6308 25.6833 39.9141 26.5399 41.4 26.8089V42.0002ZM42.3999 24.9C40.4149 24.9 38.7999 23.2851 38.7999 21.3V20H45.9999V21.3C46 23.2851 44.3851 24.9 42.3999 24.9Z" fill="white"/>
<path d="M38.3997 29H21.6003C21.0481 29 20.6003 29.4478 20.6003 30V39.0001C20.6003 39.5523 21.048 39.9998 21.6003 39.9998H38.3997C38.9519 39.9998 39.3997 39.5521 39.3997 38.9998V30.0002C39.3997 29.967 39.398 29.9338 39.3948 29.9008C39.3934 29.8871 39.3908 29.874 39.3889 29.8605C39.3862 29.8417 39.384 29.8228 39.3802 29.8041C39.3772 29.7881 39.3727 29.7728 39.3688 29.7573C39.3648 29.7412 39.3613 29.7251 39.3564 29.7092C39.3518 29.6939 39.346 29.679 39.3406 29.664C39.335 29.6483 39.3298 29.6324 39.3232 29.6168C39.3174 29.603 39.3108 29.5897 39.3043 29.5761C39.2969 29.56 39.2897 29.5439 39.2813 29.5282C39.2745 29.5153 39.2667 29.5032 39.2592 29.4908C39.25 29.4753 39.2411 29.4594 39.231 29.4442C39.222 29.4308 39.2121 29.4184 39.2025 29.4054C39.1926 29.3921 39.1834 29.3786 39.1727 29.3657C39.1549 29.3439 39.1358 29.3235 39.1163 29.3033C39.1131 29.3 39.1102 29.2961 39.1068 29.2927C39.1036 29.2896 39.1001 29.2868 39.0967 29.2837C39.0763 29.264 39.0556 29.2447 39.0337 29.2268C39.0212 29.2165 39.0081 29.2076 38.9952 29.1981C38.9818 29.188 38.9688 29.1777 38.955 29.1684C38.9403 29.1585 38.9249 29.1501 38.9099 29.1412C38.8969 29.1335 38.8843 29.1253 38.871 29.1183C38.8558 29.1101 38.84 29.1032 38.8244 29.0958C38.8104 29.0892 38.7968 29.0822 38.7823 29.0763C38.7672 29.07 38.7517 29.0649 38.7364 29.0595C38.721 29.0539 38.7056 29.048 38.6899 29.0432C38.6746 29.0386 38.6588 29.0352 38.6435 29.0313C38.6272 29.0272 38.6114 29.0227 38.595 29.0195C38.5771 29.016 38.5592 29.0138 38.5413 29.0113C38.5267 29.0093 38.5128 29.0065 38.4982 29.005C38.4656 29.0017 38.4327 29 38.3997 29ZM22.6002 37.9999V30.9998H22.6003H30.3288L29.8992 31.4293C29.5087 31.8198 29.5087 32.453 29.8992 32.8436C30.0945 33.0388 30.3504 33.1365 30.6063 33.1365C30.8623 33.1365 31.1181 33.0388 31.3133 32.8435L33.1571 30.9998H35.9856L28.9856 37.9999H22.6002ZM37.3998 37.9999H31.8141L37.3998 32.4141V37.9999Z" fill="white"/>
<path d="M27.5777 33.7506L27.1424 34.1858C26.7519 34.5764 26.7519 35.2095 27.1425 35.6002C27.3377 35.7953 27.5936 35.893 27.8495 35.893C28.1053 35.893 28.3613 35.7953 28.5565 35.6001L28.9919 35.1648C29.3824 34.7742 29.3824 34.1411 28.9918 33.7505C28.6015 33.3599 27.9682 33.36 27.5777 33.7506Z" fill="white"/>
</g>
<defs>
<clipPath id="clip0">
<rect width="48" height="48" fill="white"/>
</clipPath>
</defs>
</svg>
