<svg width="48" height="48" viewBox="0 0 48 48" fill="none" xmlns="http://www.w3.org/2000/svg">
<g clip-path="url(#clip0)">
<path d="M42.6231 40.7295C41.5413 38.6375 39.3505 37.2746 36.9677 37.2746C34.585 37.2746 32.3942 38.6374 31.3124 40.7295C28.664 40.8031 26.4746 42.7568 26.0216 45.3073H21.2481C20.7071 45.3073 20.2685 45.746 20.2685 46.2869C20.2685 46.8278 20.7071 47.2665 21.2481 47.2665H26.9151C27.456 47.2665 27.8947 46.8278 27.8947 46.2869C27.8947 44.3016 29.4971 42.6865 31.4668 42.6865C31.5847 42.6865 31.7095 42.693 31.8375 42.7059C32.2782 42.7506 32.6938 42.4936 32.8514 42.0796C33.4989 40.3775 35.1531 39.2338 36.9678 39.2338C38.7825 39.2338 40.4368 40.3774 41.0842 42.0795C41.2415 42.4936 41.6575 42.7506 42.0982 42.7059C42.2261 42.693 42.3507 42.6865 42.4685 42.6865C44.1017 42.6865 45.4823 43.7965 45.9067 45.3073H34.2563C33.7153 45.3073 33.2767 45.746 33.2767 46.2869C33.2767 46.8278 33.7153 47.2665 34.2563 47.2665H47.0204C47.5614 47.2665 48 46.8278 48 46.2869C48 43.2734 45.6021 40.8122 42.6231 40.7295Z" fill="#F0F8FF"/>
<path d="M31.2684 45.3073H31.2532C30.7122 45.3073 30.2736 45.746 30.2736 46.2869C30.2736 46.8278 30.7122 47.2665 31.2532 47.2665H31.2684C31.8094 47.2665 32.248 46.8278 32.248 46.2869C32.248 45.746 31.8095 45.3073 31.2684 45.3073Z" fill="#F0F8FF"/>
<path d="M18.1286 45.3073H18.1133C17.5724 45.3073 17.1337 45.746 17.1337 46.2869C17.1337 46.8278 17.5724 47.2665 18.1133 47.2665H18.1286C18.6695 47.2665 19.1082 46.8278 19.1082 46.2869C19.1082 45.746 18.6696 45.3073 18.1286 45.3073Z" fill="#F0F8FF"/>
<path d="M10.7494 2.66334C9.99666 1.47413 8.67947 0.7335 7.24416 0.7335C5.79 0.7335 4.47412 1.48584 3.72853 2.67825C3.54403 2.64506 3.35644 2.62809 3.16809 2.62809C1.42125 2.62819 0 4.04944 0 5.79647C0 6.53897 0.2625 7.26122 0.739313 7.83028C0.925406 8.05238 1.20038 8.18063 1.49016 8.18063H11.9547C12.2445 8.18063 12.5195 8.05228 12.7056 7.83019C13.1822 7.26113 13.4449 6.53888 13.4449 5.79638C13.4449 4.21003 12.2729 2.89219 10.7494 2.66334ZM11.4096 6.22163H2.03541C1.98984 6.10078 1.95919 5.95903 1.95919 5.79647C1.95919 5.12972 2.50153 4.58738 3.16819 4.58738C3.37744 4.58738 3.57572 4.63903 3.7575 4.74075C4.0125 4.88363 4.31822 4.905 4.59084 4.79934C4.86338 4.69341 5.0745 4.47141 5.16628 4.19372C5.46328 3.29588 6.29841 2.69269 7.24425 2.69269C8.1135 2.69269 8.90091 3.20775 9.25003 4.00491C9.41447 4.38019 9.79669 4.6126 10.204 4.58981C10.2281 4.58831 10.2523 4.58738 10.2767 4.58738C10.9434 4.58738 11.4857 5.12981 11.4857 5.79647C11.4858 5.95903 11.4551 6.10078 11.4096 6.22163Z" fill="#F0F8FF"/>
<path d="M47.0204 1.8166H34.1062C33.5653 1.8166 33.1266 2.25525 33.1266 2.79619C33.1266 3.33713 33.5653 3.77578 34.1062 3.77578H47.0204C47.5613 3.77578 48 3.33713 48 2.79619C48 2.25525 47.5613 1.8166 47.0204 1.8166Z" fill="#F0F8FF"/>
<path d="M30.7669 1.8166H30.7554C30.2145 1.8166 29.7758 2.25525 29.7758 2.79619C29.7758 3.33713 30.2144 3.77578 30.7554 3.77578H30.7669C31.3079 3.77578 31.7465 3.33713 31.7465 2.79619C31.7465 2.25525 31.3078 1.8166 30.7669 1.8166Z" fill="#F0F8FF"/>
<path d="M42.3614 4.84715H34.1062C33.5653 4.84715 33.1266 5.28581 33.1266 5.82675C33.1266 6.36769 33.5653 6.80634 34.1062 6.80634H42.3614C42.9023 6.80634 43.341 6.36769 43.341 5.82675C43.341 5.28581 42.9023 4.84715 42.3614 4.84715Z" fill="#F0F8FF"/>
<path d="M30.8959 4.84715H24.4388C23.8978 4.84715 23.4592 5.28581 23.4592 5.82675C23.4592 6.36769 23.8978 6.80634 24.4388 6.80634H30.8958C31.4367 6.80634 31.8754 6.36769 31.8754 5.82675C31.8755 5.28581 31.4368 4.84715 30.8959 4.84715Z" fill="#F0F8FF"/>
<path d="M16.1959 38.542H7.106C6.56506 38.542 6.1264 38.9807 6.1264 39.5216C6.1264 40.0626 6.56506 40.5012 7.106 40.5012H16.1959C16.7368 40.5012 17.1755 40.0626 17.1755 39.5216C17.1755 38.9807 16.7368 38.542 16.1959 38.542Z" fill="#F0F8FF"/>
<path d="M3.76658 38.542H3.75505C3.21411 38.542 2.77545 38.9807 2.77545 39.5216C2.77545 40.0626 3.21411 40.5012 3.75505 40.5012H3.76658C4.30751 40.5012 4.74617 40.0626 4.74617 39.5216C4.74617 38.9807 4.30751 38.542 3.76658 38.542Z" fill="#F0F8FF"/>
<path d="M7.0293 41.588H1.0142C0.47317 41.588 0.0346069 42.0266 0.0346069 42.5676C0.0346069 43.1085 0.47317 43.5472 1.0142 43.5472H7.0293C7.57024 43.5472 8.00889 43.1085 8.00889 42.5676C8.00889 42.0266 7.57024 41.588 7.0293 41.588Z" fill="#F0F8FF"/>
<path d="M46.4013 11.6344C42.9603 9.79444 38.8884 9.86062 35.5094 11.8114C35.5094 11.8114 24.9188 17.9272 24.8646 17.9782L15.8812 16.77C15.6665 16.7413 15.4483 16.7842 15.2608 16.8925L11.7103 18.9426C11.3746 19.1364 11.1849 19.5097 11.2261 19.8952C11.2674 20.2807 11.5318 20.6054 11.9009 20.7238L17.1348 22.4029L10.9367 25.976L5.2441 23.1461C4.95019 23.0001 4.60257 23.0107 4.31832 23.175L0.52444 25.365C0.25669 25.5196 0.0776273 25.7915 0.0414398 26.0985C0.0051585 26.4056 0.116065 26.7117 0.340502 26.9244C0.340409 26.9244 2.6415 29.1049 2.64235 29.1058L8.67629 34.8236C9.07876 35.2051 9.57901 35.4641 10.1225 35.5726L13.1296 36.1736C13.3209 36.212 13.5139 36.2307 13.7063 36.2307C14.2188 36.2307 14.7259 36.0966 15.1761 35.8368L45.5919 18.2761C47.147 17.3783 48.0247 15.9848 47.9997 14.4532C47.9797 13.2308 47.3672 12.1507 46.4013 11.6344ZM40.1297 14.2242L42.9079 12.6202C42.9774 12.5802 43.0392 12.5321 43.0948 12.479C43.8521 12.6468 44.5953 12.9118 45.3076 13.2745L41.013 15.754C40.7283 15.9185 40.3752 15.8624 40.2421 15.6317L39.8501 14.953C39.7169 14.7224 39.845 14.3886 40.1297 14.2242ZM44.612 16.5792L14.1965 34.1398C13.99 34.2591 13.7477 34.2991 13.5135 34.2523L10.5063 33.6511C10.3249 33.6149 10.158 33.5285 10.0238 33.4011L6.97707 30.514L8.57119 29.5936C9.03976 29.323 9.20026 28.724 8.92969 28.2555C8.65913 27.7871 8.06007 27.6264 7.5916 27.897L5.49357 29.1084L4.95394 28.597L5.48072 28.2929C5.94929 28.0224 6.10979 27.4233 5.83922 26.9548C5.56866 26.4864 4.96997 26.3258 4.50113 26.5963L3.47054 27.1913L2.64103 26.4053L4.84257 25.1343L10.5348 27.9639C10.8285 28.11 11.1759 28.0993 11.46 27.9353L19.6548 23.2113L21.5132 23.8074C21.6128 23.8393 21.7135 23.8545 21.8126 23.8545C22.2269 23.8545 22.6119 23.5896 22.7453 23.1739C22.9105 22.6587 22.6269 22.1071 22.1117 21.9418L14.6048 19.5337L15.951 18.7564L26.8032 20.2158C27.339 20.2873 27.8325 19.9117 27.9047 19.3755C27.9443 19.081 27.8481 18.8001 27.6651 18.5942L36.4884 13.5084C37.3776 12.9951 38.325 12.6405 39.295 12.444L39.15 12.5276C37.9249 13.2351 37.4779 14.7625 38.1534 15.9329L38.5453 16.6116C38.99 17.3816 39.8115 17.8079 40.6705 17.8079C41.1171 17.8079 41.5736 17.6927 41.9925 17.4508L45.9113 15.1882C45.7047 15.7206 45.2571 16.2067 44.612 16.5792Z" fill="#F0F8FF"/>
<path d="M32.6377 19.7372C32.3671 19.2687 31.768 19.1082 31.2996 19.3787L13.1808 29.8396C12.7122 30.1102 12.5517 30.7092 12.8223 31.1777C13.0037 31.4919 13.3329 31.6677 13.6715 31.6677C13.8376 31.6677 14.0061 31.6253 14.1603 31.5363L32.2791 21.0754C32.7477 20.8048 32.9083 20.2057 32.6377 19.7372Z" fill="#F0F8FF"/>
<path d="M35.5441 18.0643C35.2757 17.5945 34.677 17.4313 34.2075 17.6997L34.1974 17.7055C33.7276 17.9739 33.5644 18.5723 33.8328 19.0421C34.0137 19.3586 34.3442 19.5359 34.6842 19.5359C34.8491 19.5359 35.0161 19.4943 35.1693 19.4067L35.1794 19.4009C35.6493 19.1324 35.8125 18.534 35.5441 18.0643Z" fill="#F0F8FF"/>
</g>
<defs>
<clipPath id="clip0">
<rect width="48" height="48" fill="white"/>
</clipPath>
</defs>
</svg>
