<svg width="54" height="54" viewBox="0 0 54 54" fill="none" xmlns="http://www.w3.org/2000/svg">
<g clip-path="url(#clip0)">
<path d="M52.8953 44.2366H50.9028C50.2927 44.2366 49.798 44.7312 49.798 45.3414C49.798 45.9516 50.2927 46.4461 50.9028 46.4461H52.8953C53.5053 46.4461 54.0001 45.9515 54.0001 45.3414C54.0001 44.7312 53.5053 44.2366 52.8953 44.2366Z" fill="#F0F8FF"/>
<path d="M47.0004 44.2365H45.331V23.6892C46.2893 23.269 47.1243 22.5825 47.725 21.6844C48.7614 20.1346 48.9548 18.1808 48.2427 16.4579L45.8841 10.7527C45.0807 8.80948 43.2031 7.55388 41.1003 7.55388H36.0271H28.2314H20.4354H12.6395H7.56624C5.46351 7.55388 3.58575 8.80948 2.7825 10.7527L0.423898 16.458C-0.288227 18.1809 -0.0947976 20.1348 0.941538 21.6845C1.54229 22.5828 2.3776 23.2695 3.3361 23.6894V44.2365H1.34559C0.735558 44.2365 0.240804 44.7312 0.240804 45.3413C0.240804 45.9516 0.735558 46.4461 1.34559 46.4461H47.0004C47.6104 46.4461 48.1052 45.9515 48.1052 45.3413C48.1052 44.7312 47.6104 44.2365 47.0004 44.2365ZM41.1002 9.76345C42.3054 9.76345 43.3816 10.4832 43.842 11.5969L46.2006 17.302C46.6368 18.3573 46.5229 19.5069 45.8882 20.4561C45.2535 21.4053 44.2346 21.9496 43.0926 21.9496C41.5437 21.9496 40.2014 20.8996 39.8286 19.3963L39.2952 17.2457C39.2952 17.2456 39.2952 17.2454 39.2951 17.2453L37.4393 9.76345H41.1002ZM20.7458 18.3103L21.4525 9.76334H27.2139L27.304 10.8528L27.9203 18.3097C27.9987 19.2575 27.6871 20.1649 27.0429 20.8646C26.3987 21.5642 25.5202 21.9496 24.569 21.9496H24.0973C23.1462 21.9496 22.2675 21.5642 21.6233 20.8646C20.9793 20.1651 20.6678 19.258 20.7458 18.3103ZM11.5158 17.7777L13.5037 9.76345H19.2353L18.6738 16.5568L18.5438 18.1278C18.5438 18.128 18.5438 18.1281 18.5438 18.1283L18.483 18.8639C18.3399 20.5942 16.8678 21.9496 15.1315 21.9496H14.78C13.7384 21.9496 12.773 21.4791 12.1312 20.6588C11.4895 19.8387 11.2652 18.7885 11.5158 17.7777ZM2.77838 20.4562C2.14367 19.5071 2.02976 18.3574 2.46598 17.302L4.82469 11.5968C5.28495 10.4831 6.36115 9.76345 7.56624 9.76345H11.2272L9.37134 17.2452C9.37123 17.2456 9.37123 17.246 9.37113 17.2466L8.83788 19.3964C8.46504 20.8998 7.12285 21.9497 5.57394 21.9497C4.43203 21.9497 3.41299 21.4053 2.77838 20.4562ZM29.6269 44.2362H5.54578V24.1585C5.55516 24.1585 5.56444 24.1593 5.57394 24.1593C7.46193 24.1593 9.16367 23.2172 10.1781 21.7277C10.246 21.827 10.3163 21.9248 10.3912 22.0203C11.4546 23.3797 13.0543 24.1593 14.7803 24.1593H15.1318C16.5341 24.1593 17.8747 23.6362 18.9063 22.6862C19.1695 22.444 19.4062 22.1791 19.6154 21.8963C19.7342 22.0573 19.8616 22.2128 19.9983 22.3613C21.0503 23.5038 22.5446 24.1592 24.0978 24.1592H24.5695C26.1227 24.1592 27.617 23.5038 28.669 22.3612C28.8056 22.2128 28.9331 22.0573 29.0518 21.8963C29.2246 22.1301 29.4171 22.3508 29.627 22.5572V44.2362H29.6269ZM30.1834 18.864L29.431 9.76355H35.1628V9.76345L37.1505 17.7779C37.401 18.7887 37.1768 19.8387 36.5351 20.6589C35.8934 21.4792 34.928 21.9497 33.8864 21.9497H33.5349C31.7985 21.9497 30.3264 20.5942 30.1834 18.864ZM43.1217 44.2361H43.1214H31.8364V23.8937C32.3802 24.0676 32.952 24.1593 33.5351 24.1593H33.8866C35.6125 24.1593 37.2123 23.3797 38.2758 22.0203C38.3505 21.9247 38.4208 21.827 38.4888 21.7278C39.5032 23.2173 41.205 24.1594 43.093 24.1594C43.1026 24.1594 43.1121 24.1586 43.1217 24.1586V44.2361Z" fill="#F0F8FF"/>
<path d="M40.3871 31.2851C39.777 31.2851 39.2823 31.7797 39.2823 32.3898V34.2474C39.2823 34.8576 39.777 35.3521 40.3871 35.3521C40.9971 35.3521 41.4919 34.8575 41.4919 34.2474V32.3898C41.4919 31.7797 40.9972 31.2851 40.3871 31.2851Z" fill="#F0F8FF"/>
<path d="M22.7519 34.1133C24.2053 33.3084 25.1418 31.9982 25.1418 30.5141C25.1418 29.9031 24.986 29.3128 24.6802 28.7632C24.4843 28.4073 24.2267 28.0725 23.9177 27.7708C23.6454 27.503 23.3291 27.2579 22.9772 27.0425C22.9651 27.0351 22.9525 27.0278 22.9401 27.0209C22.3862 26.7138 21.796 26.5581 21.1855 26.5581C19.7015 26.5581 18.3913 27.4947 17.5863 28.9479C16.781 27.4947 15.4706 26.5581 13.9861 26.5581C13.3759 26.5581 12.7856 26.7139 12.2315 27.0209C12.2191 27.0278 12.2065 27.035 12.1944 27.0425C11.8465 27.2557 11.5306 27.5001 11.2572 27.7678C10.9453 28.0722 10.6877 28.4071 10.4933 28.7599C10.1866 29.3115 10.031 29.9017 10.031 30.5136C10.0302 31.9981 10.9663 33.3083 12.4198 34.1136C10.9664 34.9187 10.03 36.2292 10.03 37.7137C10.03 38.3249 10.1859 38.9152 10.4932 39.4681C10.4997 39.4797 10.5065 39.4913 10.5134 39.5027C10.7261 39.8514 10.971 40.168 11.2397 40.4425C11.5422 40.7526 11.8766 41.0101 12.2346 41.208C12.7888 41.5136 13.3781 41.6686 13.986 41.6686C15.4706 41.6686 16.7809 40.7322 17.5862 39.2792C18.3911 40.7322 19.7013 41.6686 21.1854 41.6686C21.795 41.6686 22.3846 41.5135 22.9363 41.2082C23.2923 41.0122 23.6272 40.7546 23.9305 40.4438C24.2004 40.168 24.4452 39.8514 24.6581 39.5025C24.665 39.4911 24.6718 39.4795 24.6783 39.4679C24.9858 38.9149 25.1416 38.3246 25.1416 37.7135C25.1418 36.2292 24.2053 34.9186 22.7519 34.1133ZM21.1855 28.5467C21.4482 28.5467 21.7079 28.6152 21.9576 28.7503C22.1728 28.8837 22.3629 29.0311 22.5256 29.1912C22.6976 29.3591 22.8364 29.538 22.9401 29.7262C23.0813 29.9802 23.153 30.2453 23.153 30.5142C23.153 31.6404 21.9151 32.6174 20.2697 32.8882C19.9746 32.2447 19.4552 31.7252 18.8117 31.4301C19.0826 29.7846 20.0593 28.5467 21.1855 28.5467ZM13.9861 39.6799C13.7179 39.6799 13.4517 39.6082 13.1962 39.4673C13.0095 39.3639 12.8303 39.2249 12.662 39.0527C12.5017 38.8888 12.3538 38.6979 12.2222 38.4849C12.0872 38.2362 12.0187 37.9768 12.0187 37.7137C12.0187 36.5868 13.2566 35.6095 14.9019 35.3386C15.197 35.9827 15.7169 36.5025 16.361 36.7976C16.0903 38.4424 15.1129 39.6799 13.9861 39.6799ZM14.9022 32.8882C13.2568 32.6175 12.0191 31.6407 12.0197 30.5142C12.0197 30.2439 12.091 29.9788 12.2333 29.7228C12.3352 29.5379 12.4741 29.3592 12.6472 29.1902C12.8104 29.0304 13.0009 28.8825 13.214 28.7504C13.4639 28.6153 13.7235 28.5468 13.9861 28.5468C15.1128 28.5468 16.09 29.7845 16.3612 31.4297C15.7173 31.7247 15.1974 32.2444 14.9022 32.8882ZM17.586 35.0761C17.0552 35.0761 16.6235 34.6443 16.6235 34.1136C16.6235 33.5828 17.0552 33.151 17.586 33.151C18.1168 33.151 18.5486 33.5828 18.5486 34.1136C18.5486 34.6443 18.1168 35.0761 17.586 35.0761ZM22.9494 38.4849C22.8177 38.6981 22.6699 38.8891 22.5085 39.0538C22.3406 39.2258 22.1618 39.3646 21.9755 39.4674C21.7202 39.6085 21.4546 39.68 21.1856 39.68C20.0592 39.68 19.0824 38.4423 18.8117 36.7972C19.4554 36.502 19.975 35.9823 20.27 35.3386C21.9153 35.6096 23.1531 36.5869 23.1531 37.7136C23.1531 37.9766 23.0846 38.236 22.9494 38.4849Z" fill="#F0F8FF"/>
</g>
<defs>
<clipPath id="clip0">
<rect width="54" height="54" fill="white"/>
</clipPath>
</defs>
</svg>
