<svg width="48" height="48" viewBox="0 0 48 48" fill="none" xmlns="http://www.w3.org/2000/svg">
<g clip-path="url(#clip0)">
<path d="M46.506 0.0825907C46.1011 -0.0852218 45.6351 0.00768447 45.3251 0.317434L34.9645 10.6779C31.6077 9.13425 27.8375 8.322 24 8.322C20.1625 8.322 16.3923 9.13434 13.0355 10.678L2.67478 0.317341C2.36475 0.00759072 1.89881 -0.0853155 1.4939 0.0824969C1.089 0.250309 0.824997 0.645372 0.824997 1.08365V28.161C0.824997 33.4941 3.25865 38.4974 7.67775 42.2492C12.0459 45.9576 17.8426 48 24 48C30.1574 48 35.9542 45.9576 40.3223 42.2492C44.7413 38.4974 47.175 33.4942 47.175 28.161V1.08365C47.175 0.645372 46.9109 0.250309 46.506 0.0825907ZM24.0001 45.8329C12.4164 45.8329 2.99212 37.9053 2.99212 28.161V3.69965L11.0872 11.7947C9.88228 12.5773 8.84315 13.4652 7.98572 14.4499C7.59272 14.9012 7.64006 15.5857 8.09128 15.9787C8.29659 16.1574 8.55009 16.245 8.80247 16.245C9.105 16.245 9.40387 16.1172 9.62015 15.873C11.4487 13.8089 14.0182 12.631 14.1502 12.5547C17.1717 11.2022 20.5532 10.4891 24 10.4891C27.5886 10.4891 31.1075 11.2598 34.2218 12.7228C34.2707 12.7602 37.4092 14.3599 38.3799 15.8731C38.556 16.1477 38.895 16.2451 39.1975 16.2451C39.4499 16.2451 39.7033 16.1574 39.9087 15.9787C40.36 15.5857 40.4073 14.9013 40.0143 14.45C39.159 13.4678 38.1191 12.5793 36.9124 11.7952L45.008 3.69965V28.1612C45.0078 37.9054 35.5838 45.8329 24.0001 45.8329Z" fill="#F0F8FF"/>
<path d="M33.9949 32.7203C33.3964 32.7203 32.9113 33.2055 32.9113 33.8039L32.9111 33.8358C32.903 34.4341 33.3815 34.9258 33.9799 34.934C33.9849 34.934 33.9899 34.9341 33.995 34.9341C34.5865 34.9341 35.0701 34.4586 35.0781 33.8652L35.0785 33.8039C35.0784 33.2055 34.5933 32.7203 33.9949 32.7203Z" fill="#F0F8FF"/>
<path d="M16.4938 24.6035C16.4938 25.2019 16.979 25.687 17.5774 25.687C18.1758 25.687 18.6609 25.2019 18.6609 24.6035C18.6609 21.9568 16.5724 19.8036 14.0051 19.8036C11.4379 19.8036 9.3493 21.9568 9.3493 24.6035C9.3493 25.2019 9.83446 25.687 10.4329 25.687C11.0313 25.687 11.5164 25.2019 11.5164 24.6035C11.5164 23.1518 12.6328 21.9708 14.005 21.9708C15.3772 21.9708 16.4938 23.1518 16.4938 24.6035Z" fill="#F0F8FF"/>
<path d="M33.9949 19.8036C31.4277 19.8036 29.3391 21.9568 29.3391 24.6035C29.3391 25.2019 29.8242 25.687 30.4226 25.687C31.021 25.687 31.5062 25.2019 31.5062 24.6035C31.5062 23.1518 32.6226 21.9708 33.9948 21.9708C35.367 21.9708 36.4834 23.1518 36.4834 24.6035C36.4834 25.2019 36.9685 25.687 37.567 25.687C38.1654 25.687 38.6505 25.2019 38.6505 24.6035C38.6508 21.9568 36.5621 19.8036 33.9949 19.8036Z" fill="#F0F8FF"/>
<path d="M31.2287 36.0369C30.5696 36.3624 29.7981 36.5344 28.9974 36.5344C27.6697 36.5344 26.4715 36.0443 25.7606 35.3151C27.2408 34.7432 28.2735 33.4745 28.2735 32.0038C28.2735 29.9992 26.3564 28.3683 24.0001 28.3683C21.6438 28.3683 19.7267 29.9991 19.7267 32.0038C19.7267 33.4746 20.7592 34.7432 22.2395 35.3151C21.5286 36.0444 20.3304 36.5344 19.0027 36.5344C16.8812 36.5344 15.0889 35.2839 15.0889 33.8039C15.0889 33.2054 14.6037 32.7203 14.0053 32.7203C13.4069 32.7203 12.9217 33.2055 12.9217 33.8039C12.9217 36.5045 15.6496 38.7015 19.0027 38.7015C21.0724 38.7015 22.9019 37.8636 24.0002 36.5875C25.0985 37.8636 26.928 38.7015 28.9976 38.7015C30.1293 38.7015 31.2327 38.4519 32.1885 37.9799C32.7251 37.7149 32.9451 37.0652 32.6802 36.5285C32.4151 35.9921 31.7653 35.772 31.2287 36.0369ZM24 33.4722C22.8583 33.4722 21.8937 32.7997 21.8937 32.0039C21.8937 31.2081 22.8582 30.5356 24 30.5356C25.1418 30.5356 26.1063 31.2081 26.1063 32.0039C26.1063 32.7997 25.1417 33.4722 24 33.4722Z" fill="#F0F8FF"/>
</g>
<defs>
<clipPath id="clip0">
<rect width="48" height="48" fill="white"/>
</clipPath>
</defs>
</svg>
