<svg width="24" height="24" viewBox="0 0 24 24" fill="none" xmlns="http://www.w3.org/2000/svg">
<path fill-rule="evenodd" clip-rule="evenodd" d="M11 8.00006C11 7.44806 11.448 7.00006 12 7.00006C12.552 7.00006 13 7.44806 13 8.00006V13.0001C13 13.5521 12.552 14.0001 12 14.0001C11.448 14.0001 11 13.5521 11 13.0001V8.00006ZM11 16.0001C11 15.4481 11.448 15.0001 12 15.0001C12.552 15.0001 13 15.4481 13 16.0001C13 16.5521 12.552 17.0001 12 17.0001C11.448 17.0001 11 16.5521 11 16.0001ZM12 20.0001C7.58897 20.0001 3.99997 16.4111 3.99997 12.0001C3.99997 7.58907 7.58897 4.00007 12 4.00007C16.411 4.00007 20 7.58907 20 12.0001C20 16.4111 16.411 20.0001 12 20.0001ZM12 2C6.477 2 2 6.477 2 12C2 17.523 6.477 22 12 22C17.523 22 22 17.523 22 12C22 6.477 17.523 2 12 2Z" fill="#231F20"/>
<mask id="mask0" mask-type="alpha" maskUnits="userSpaceOnUse" x="2" y="2" width="20" height="20">
<path fill-rule="evenodd" clip-rule="evenodd" d="M11 8.00006C11 7.44806 11.448 7.00006 12 7.00006C12.552 7.00006 13 7.44806 13 8.00006V13.0001C13 13.5521 12.552 14.0001 12 14.0001C11.448 14.0001 11 13.5521 11 13.0001V8.00006ZM11 16.0001C11 15.4481 11.448 15.0001 12 15.0001C12.552 15.0001 13 15.4481 13 16.0001C13 16.5521 12.552 17.0001 12 17.0001C11.448 17.0001 11 16.5521 11 16.0001ZM12 20.0001C7.58897 20.0001 3.99997 16.4111 3.99997 12.0001C3.99997 7.58907 7.58897 4.00007 12 4.00007C16.411 4.00007 20 7.58907 20 12.0001C20 16.4111 16.411 20.0001 12 20.0001ZM12 2C6.477 2 2 6.477 2 12C2 17.523 6.477 22 12 22C17.523 22 22 17.523 22 12C22 6.477 17.523 2 12 2Z" fill="white"/>
</mask>
<g mask="url(#mask0)">
<rect width="24" height="24" fill="#E4002B"/>
</g>
</svg>
