<svg width="32" height="32" viewBox="0 0 32 32" fill="none" xmlns="http://www.w3.org/2000/svg">
<path fill-rule="evenodd" clip-rule="evenodd" d="M21.3331 16.0002C21.3331 15.6962 21.2305 15.3935 21.0238 15.1469L14.3571 7.14687C13.8865 6.58154 13.0451 6.5042 12.4798 6.9762C11.9145 7.44687 11.8385 8.28687 12.3091 8.85354L18.2771 16.0149L12.5238 23.1642C12.0625 23.7375 12.1531 24.5775 12.7265 25.0389C13.2998 25.5002 14.1385 25.4095 14.6011 24.8362L21.0385 16.8362C21.2345 16.5922 21.3331 16.2962 21.3331 16.0002Z" fill="#231F20"/>
<mask id="mask0" mask-type="alpha" maskUnits="userSpaceOnUse" x="12" y="6" width="10" height="20">
<path fill-rule="evenodd" clip-rule="evenodd" d="M21.3331 16.0002C21.3331 15.6962 21.2305 15.3935 21.0238 15.1469L14.3571 7.14687C13.8865 6.58154 13.0451 6.5042 12.4798 6.9762C11.9145 7.44687 11.8385 8.28687 12.3091 8.85354L18.2771 16.0149L12.5238 23.1642C12.0625 23.7375 12.1531 24.5775 12.7265 25.0389C13.2998 25.5002 14.1385 25.4095 14.6011 24.8362L21.0385 16.8362C21.2345 16.5922 21.3331 16.2962 21.3331 16.0002Z" fill="white"/>
</mask>
<g mask="url(#mask0)">
<rect width="32" height="32" transform="matrix(-4.18513e-08 1 1 4.56541e-08 0 0)" fill="#005EB8"/>
</g>
</svg>
