<svg width="24" height="24" viewBox="0 0 24 24" fill="none" xmlns="http://www.w3.org/2000/svg">
<path fill-rule="evenodd" clip-rule="evenodd" d="M16 11.9999C16 11.7719 15.923 11.5449 15.768 11.3599L10.768 5.35991C10.415 4.93591 9.78398 4.87791 9.35998 5.23191C8.93598 5.58491 8.87898 6.21491 9.23198 6.63991L13.708 12.0109L9.39298 17.3729C9.04698 17.8029 9.11498 18.4329 9.54498 18.7789C9.97498 19.1249 10.604 19.0569 10.951 18.6269L15.779 12.6269C15.926 12.4439 16 12.2219 16 11.9999Z" fill="#231F20"/>
<mask id="mask0" mask-type="alpha" maskUnits="userSpaceOnUse" x="9" y="5" width="7" height="14">
<path fill-rule="evenodd" clip-rule="evenodd" d="M16 11.9999C16 11.7719 15.923 11.5449 15.768 11.3599L10.768 5.35991C10.415 4.93591 9.78398 4.87791 9.35998 5.23191C8.93598 5.58491 8.87898 6.21491 9.23198 6.63991L13.708 12.0109L9.39298 17.3729C9.04698 17.8029 9.11498 18.4329 9.54498 18.7789C9.97498 19.1249 10.604 19.0569 10.951 18.6269L15.779 12.6269C15.926 12.4439 16 12.2219 16 11.9999Z" fill="white"/>
</mask>
<g mask="url(#mask0)">
<rect width="24" height="24" transform="matrix(-4.18246e-08 1 1 4.56833e-08 0 0)" fill="#00A9E0"/>
</g>
</svg>
