<svg width="40" height="40" viewBox="0 0 40 40" fill="none" xmlns="http://www.w3.org/2000/svg">
<path fill-rule="evenodd" clip-rule="evenodd" d="M20 26.6667C19.62 26.6667 19.2417 26.5383 18.9333 26.28L8.93334 17.9467C8.22668 17.3583 8.13001 16.3067 8.72001 15.6C9.30834 14.8933 10.3583 14.7983 11.0667 15.3867L20.0183 22.8467L28.955 15.655C29.6717 15.0783 30.7217 15.1917 31.2983 15.9083C31.875 16.625 31.7617 17.6733 31.045 18.2517L21.045 26.2983C20.74 26.5433 20.37 26.6667 20 26.6667Z" fill="#231F20"/>
<mask id="mask0" mask-type="alpha" maskUnits="userSpaceOnUse" x="8" y="15" width="24" height="12">
<path fill-rule="evenodd" clip-rule="evenodd" d="M20 26.6667C19.62 26.6667 19.2417 26.5383 18.9333 26.28L8.93334 17.9467C8.22668 17.3583 8.13001 16.3067 8.72001 15.6C9.30834 14.8933 10.3583 14.7983 11.0667 15.3867L20.0183 22.8467L28.955 15.655C29.6717 15.0783 30.7217 15.1917 31.2983 15.9083C31.875 16.625 31.7617 17.6733 31.045 18.2517L21.045 26.2983C20.74 26.5433 20.37 26.6667 20 26.6667Z" fill="white"/>
</mask>
<g mask="url(#mask0)">
<rect width="40" height="40" fill="#005EB8"/>
</g>
</svg>
