<svg width="111" height="111" viewBox="0 0 111 111" fill="none" xmlns="http://www.w3.org/2000/svg">
<path d="M92.3644 86.8653L93.0119 87.0811L93.4489 86.5568C100.465 78.1376 104.681 67.6014 104.681 55.6666C104.681 28.3018 82.9204 6.54163 55.5557 6.54163C28.1909 6.54163 6.43066 28.3018 6.43066 55.6666C6.43066 67.5937 10.6423 78.1486 17.6907 85.9018L18.2003 86.4623L18.8779 86.1236C20.1603 85.4823 22.1138 84.8264 24.1795 84.1378L39.2346 81.4005L39.3751 81.3749L39.5029 81.3111C40.2986 80.9132 41.0955 80.3182 41.7055 79.6065C42.3058 78.9062 42.8057 77.9952 42.8057 76.9791V73.5416V73.3056L42.7001 73.0944C42.4103 72.5148 42.0011 71.9189 41.6152 71.3568C41.4939 71.1802 41.375 71.0069 41.2627 70.8385C40.7644 70.091 40.3062 69.3186 40.0043 68.4129L39.9297 68.1889L39.7628 68.022C39.1813 67.4405 38.7219 66.688 38.297 65.9232C38.2311 65.8046 38.1639 65.6816 38.0965 65.5585C37.9594 65.3079 37.8219 65.0566 37.6947 64.8396C37.5178 64.5377 37.3063 64.2045 37.0563 63.9417C36.5666 63.3306 36.0715 62.7374 35.5811 62.1499C34.6498 61.0341 33.7357 59.9388 32.9085 58.7807C31.6567 57.0282 30.7245 55.2841 30.4171 53.4397C29.7559 49.473 30.4609 47.8006 31.5128 46.7487L31.8057 46.4558V46.0416V43.2916V43.2089L31.7921 43.1272C31.4589 41.1283 31.292 38.79 31.3752 36.6269C31.4596 34.434 31.7971 32.5448 32.3876 31.3638L32.4194 31.3003L32.4418 31.2329C34.0673 26.3565 37.6591 22.5716 41.986 19.9089C46.3027 17.2525 51.2881 15.7545 55.5939 15.4167C59.3609 15.4248 62.5403 16.6392 67.1379 18.6026C67.2584 18.8004 67.4194 18.9577 67.587 19.0738C67.8914 19.2845 68.2405 19.3828 68.508 19.4363C68.9724 19.5291 69.4903 19.5402 69.8333 19.5415C70.4177 19.7294 70.9554 19.8642 71.4621 19.9912C72.9105 20.3543 74.1067 20.6543 75.4241 21.9497C76.4008 23.2584 77.1817 24.527 77.729 26.0907C78.2852 27.6799 78.6182 29.6263 78.6182 32.2916V32.4539L78.6695 32.6079C79.9828 36.5479 79.9932 41.8699 79.9932 46.0416V46.2039L80.0445 46.3579C80.3892 47.3921 80.7034 48.3413 80.8613 49.5254C81.0183 50.7025 81.0241 52.1485 80.6943 54.1272L80.6924 54.1387L80.6907 54.1502C80.0575 58.5826 76.887 61.796 74.0986 64.5845C73.6793 65.0037 73.1174 65.7634 72.5986 66.5416C72.0685 67.3368 71.5293 68.2332 71.1612 68.9694C70.8385 69.6149 70.3459 70.4372 69.8232 71.3084L69.8073 71.3348C69.3035 72.1746 68.7722 73.06 68.4112 73.7819L68.3057 73.9931V74.2291V77.6666C68.3057 78.6344 68.7641 79.6997 69.365 80.501C69.9278 81.2513 70.8363 82.0555 71.9538 82.102L87.0018 84.838L87.0905 84.8541H87.1807C87.9767 84.8541 88.6671 85.1138 89.4835 85.522C89.6628 85.6117 89.8535 85.7118 90.0545 85.8174C90.7216 86.1678 91.5029 86.5781 92.3644 86.8653ZM1.55566 55.6666C1.55566 25.9689 25.8579 1.66663 55.5557 1.66663C85.2534 1.66663 109.556 25.9689 109.556 55.6666C109.556 85.3643 85.2534 109.667 55.5557 109.667C25.8579 109.667 1.55566 85.3643 1.55566 55.6666Z" fill="#005EB8" stroke="white" stroke-width="2"/>
</svg>
