<svg width="16" height="16" viewBox="0 0 16 16" fill="none" xmlns="http://www.w3.org/2000/svg">
<path fill-rule="evenodd" clip-rule="evenodd" d="M10.6666 7.33325H8.66665V5.33325C8.66665 4.96459 8.36798 4.66658 7.99998 4.66658C7.63198 4.66658 7.33331 4.96459 7.33331 5.33325V7.99992C7.33331 8.36859 7.63198 8.66659 7.99998 8.66659H10.6666C11.0353 8.66659 11.3333 8.36859 11.3333 7.99992C11.3333 7.63125 11.0353 7.33325 10.6666 7.33325ZM7.99998 13.3333C5.05931 13.3333 2.66665 10.9406 2.66665 7.99992C2.66665 5.05925 5.05931 2.66659 7.99998 2.66659C10.9406 2.66659 13.3333 5.05925 13.3333 7.99992C13.3333 10.9406 10.9406 13.3333 7.99998 13.3333ZM7.99998 1.33325C4.32398 1.33325 1.33331 4.32392 1.33331 7.99992C1.33331 11.6759 4.32398 14.6666 7.99998 14.6666C11.676 14.6666 14.6666 11.6759 14.6666 7.99992C14.6666 4.32392 11.676 1.33325 7.99998 1.33325Z" fill="#231F20"/>
<mask id="mask0" mask-type="alpha" maskUnits="userSpaceOnUse" x="1" y="1" width="14" height="14">
<path fill-rule="evenodd" clip-rule="evenodd" d="M10.6666 7.33325H8.66665V5.33325C8.66665 4.96459 8.36798 4.66658 7.99998 4.66658C7.63198 4.66658 7.33331 4.96459 7.33331 5.33325V7.99992C7.33331 8.36859 7.63198 8.66659 7.99998 8.66659H10.6666C11.0353 8.66659 11.3333 8.36859 11.3333 7.99992C11.3333 7.63125 11.0353 7.33325 10.6666 7.33325ZM7.99998 13.3333C5.05931 13.3333 2.66665 10.9406 2.66665 7.99992C2.66665 5.05925 5.05931 2.66659 7.99998 2.66659C10.9406 2.66659 13.3333 5.05925 13.3333 7.99992C13.3333 10.9406 10.9406 13.3333 7.99998 13.3333ZM7.99998 1.33325C4.32398 1.33325 1.33331 4.32392 1.33331 7.99992C1.33331 11.6759 4.32398 14.6666 7.99998 14.6666C11.676 14.6666 14.6666 11.6759 14.6666 7.99992C14.6666 4.32392 11.676 1.33325 7.99998 1.33325Z" fill="white"/>
</mask>
<g mask="url(#mask0)">
<rect width="16" height="16" fill="#066DCF"/>
</g>
</svg>
