<svg width="48" height="48" viewBox="0 0 48 48" fill="none" xmlns="http://www.w3.org/2000/svg">
<g clip-path="url(#clip0)">
<path d="M8.98815 13.0475C11.2627 13.0475 13.1066 11.2036 13.1066 8.92907C13.1066 6.65489 11.2627 4.81104 8.98815 4.81104C6.71397 4.81104 4.87012 6.65489 4.87012 8.92907C4.87285 11.2025 6.71475 13.0448 8.98815 13.0475ZM8.98815 6.40909C10.3802 6.40909 11.5085 7.53741 11.5085 8.92907C11.5085 10.3211 10.3802 11.4494 8.98815 11.4494C7.59649 11.4494 6.46817 10.3211 6.46817 8.92907C6.46973 7.53819 7.59727 6.41104 8.98815 6.40909Z" fill="white"/>
<path d="M44.8178 35.4953L44.5092 27.4332L46.0128 25.3654L44.1896 22.014L44.5556 20.8877L48.0002 19.2479V15.9097L44.5556 14.2699L44.1896 13.1436L46.0128 9.79219L44.0504 7.09313L40.2999 7.79072L39.3413 7.09391L38.8458 3.31218L35.6735 2.28062L33.0489 5.04913H31.8644L29.2399 2.28062L26.0668 3.31218L25.9119 4.49161L14.8141 3.83069L14.0662 3.08277L13.8594 1.40474L10.8646 0.160156L9.53027 1.20264H8.44839L7.11056 0.160156L4.11421 1.40318L3.90821 3.08121L3.14117 3.84825L1.46314 4.05464L0.21817 7.05255L1.2626 8.38999V9.47421L0.21817 10.8062L1.20837 13.1947L0.105807 27.331C0.0808373 27.5113 0.0667919 27.6927 0.0632806 27.8741V27.9037H0.0585988V27.9662C0.0562578 29.5872 0.874793 31.0995 2.2333 31.9843C3.5918 32.8692 5.30612 33.0061 6.78791 32.3487L11.5165 30.3785C10.7503 32.5419 11.6355 34.9444 13.6229 36.093L6.31895 38.4464C3.90275 38.9282 2.24539 41.1634 2.48572 43.6155C2.72605 46.0676 4.78605 47.938 7.24985 47.9419H7.29198L36.714 46.3988L37.1646 47.4791L39.7053 48.0004L41.7676 45.997L42.2927 45.823L45.1443 46.1905L46.8665 44.2503L46.1622 41.4626L46.2742 40.9199L48.0178 38.634L47.2012 36.173L44.8178 35.4953ZM27.5193 4.51931L28.774 4.11199L31.1774 6.64719H33.7344L36.1377 4.11199L37.3932 4.51931L37.8462 7.98345L39.9156 9.48709L43.3512 8.84802L44.1257 9.91469L42.4574 12.9844L43.2482 15.4174L46.4022 16.9195V18.2382L43.2482 19.7402L42.4574 22.1732L44.1257 25.2421L43.3512 26.3088L39.9156 25.6697L37.8462 27.1734L37.3932 30.6371L36.1377 31.0448L33.7344 28.5096H31.1774L28.774 31.0448L27.5193 30.6371L27.0656 27.1749L24.9962 25.6705L21.5602 26.3096L20.7853 25.2429L22.4536 22.1748L21.6635 19.741L18.5096 18.2389V16.9202L21.6635 15.4182L22.4536 12.9844L20.7853 9.91626L21.5602 8.84958L24.9962 9.48865L27.0656 7.98267L27.5193 4.51931ZM2.05617 6.80403L2.58326 5.5255L3.88519 5.36554L5.42862 3.82445L5.58859 2.52291L6.86711 1.99542L7.90023 2.80225H10.0855L11.1139 1.99776L12.3924 2.52525L12.552 3.82601L14.0919 5.36983L15.3934 5.5294L15.9217 6.80793L15.1145 7.84105V10.0263L15.9217 11.0594L15.3934 12.3379L14.0919 12.4979L12.5481 14.0417L12.3881 15.3432L11.11 15.8711L10.0769 15.0643H7.89554L6.86204 15.8711L5.5839 15.3432L5.42394 14.0417L3.88168 12.4897L2.58092 12.3301L2.05383 11.0516L2.86066 10.0185V7.83714L2.05617 6.80403ZM1.65665 27.9806L1.66602 27.8558C1.82715 26.2093 3.28397 24.9991 4.93235 25.143C6.58074 25.287 7.80581 26.7313 7.67862 28.3813C7.55182 30.0308 6.12036 31.2707 4.46964 31.1611C2.81852 31.0511 1.5638 29.6325 1.65665 27.9806ZM16.0391 28.7652C17.8042 28.7652 19.2353 30.1963 19.2353 31.9613C19.2353 33.7263 17.8042 35.1574 16.0391 35.1574C14.2737 35.1574 12.843 33.7263 12.843 31.9613C12.843 30.1963 14.2737 28.7652 16.0391 28.7652ZM4.05374 43.1477C4.05725 41.9062 4.77941 40.7795 5.90578 40.2575L6.67828 40.0089C7.86238 39.7986 9.06404 40.2715 9.78738 41.2321C10.5107 42.193 10.6324 43.4785 10.103 44.5581C9.57319 45.6376 8.48155 46.3278 7.2795 46.3438H7.24009C5.47856 46.3383 4.05374 44.9092 4.05374 43.1477V43.1477ZM10.9844 46.1464C11.8556 45.0676 12.2153 43.6635 11.9703 42.2987C11.7249 40.934 10.8985 39.7429 9.70584 39.0351L17.51 36.5245C19.1959 35.9986 20.456 34.5878 20.7896 32.8536C21.1232 31.1194 20.4763 29.3422 19.1061 28.228C17.7355 27.1141 15.8636 26.8437 14.2339 27.5241L9.37928 29.5474C10.0804 27.5522 9.38865 25.3334 7.67784 24.09C5.96664 22.847 3.64291 22.8747 1.96175 24.1579L2.76078 13.9641L3.1482 14.0121L3.91523 14.7791L4.12162 16.4571L7.11876 17.697L8.45307 16.6584H9.5373L10.8708 17.697L13.8594 16.4602L14.0662 14.7822L14.8332 14.0152L16.5112 13.808L17.7515 10.8128L16.7125 9.4789V8.38999L17.7515 7.05567L17.1378 5.57271L25.7075 6.07991L25.5748 7.09469L24.6158 7.79072L20.8661 7.09313L18.9036 9.79219L20.726 13.1436L20.3608 14.2676L16.9162 15.9097V19.2479L20.3601 20.8877L20.726 22.014L18.9036 25.3654L20.8661 28.0645L24.6158 27.3669L25.5748 28.0629L26.0699 31.8454L29.243 32.877L31.8679 30.1085H33.052L35.6766 32.877L38.8497 31.8454L39.3452 28.0637L40.3038 27.3669L42.931 27.8558L43.1222 32.8555L42.9181 32.3671L40.3767 31.8447L38.3097 33.8469L37.7846 34.0221L34.9329 33.6546L33.2108 35.5944L33.9135 38.3824L33.8015 38.9247L32.0579 41.2102L32.8769 43.6717L35.6422 44.4582L36.057 44.8257V44.8312L10.9844 46.1464ZM44.7835 40.2407L44.5244 41.4985L45.11 43.8211L44.51 44.4964L42.1343 44.1921L40.9167 44.5963L39.1981 46.2638L38.3136 46.0832L37.3913 43.8734L36.4327 43.0205L34.1288 42.3654L33.8429 41.5071L35.2958 39.6032L35.5537 38.3465L34.9681 36.0236L35.5681 35.3474L37.9437 35.6529L39.1622 35.2483L40.8816 33.58L41.766 33.7622L42.6891 35.9732L43.6477 36.8241L45.9516 37.4784L46.2368 38.3368L44.7835 40.2407Z" fill="white"/>
<path d="M6.45099 27.9662C6.45099 28.8487 5.73545 29.5643 4.85294 29.5643C3.97042 29.5643 3.25488 28.8487 3.25488 27.9662C3.25488 27.0837 3.97042 26.3682 4.85294 26.3682C5.73545 26.3682 6.45099 27.0837 6.45099 27.9662Z" fill="white"/>
<path d="M17.6375 31.9613C17.6375 32.8439 16.922 33.5594 16.0395 33.5594C15.1569 33.5594 14.4414 32.8439 14.4414 31.9613C14.4414 31.0788 15.1569 30.3633 16.0395 30.3633C16.922 30.3633 17.6375 31.0788 17.6375 31.9613Z" fill="white"/>
<path d="M8.84748 43.1474C8.84748 44.0299 8.13194 44.7454 7.24942 44.7454C6.3669 44.7454 5.65137 44.0299 5.65137 43.1474C5.65137 42.2649 6.3669 41.5493 7.24942 41.5493C8.13194 41.5493 8.84748 42.2649 8.84748 43.1474Z" fill="white"/>
<path d="M40.0098 35.9561C37.8031 35.9561 36.0146 37.7449 36.0146 39.9512C36.0146 42.1575 37.8031 43.9463 40.0098 43.9463C42.2161 43.9463 44.0049 42.1575 44.0049 39.9512C44.0022 37.7457 42.2149 35.9588 40.0098 35.9561ZM40.0098 42.3483C38.686 42.3483 37.6127 41.275 37.6127 39.9512C37.6127 38.6274 38.686 37.5541 40.0098 37.5541C41.3336 37.5541 42.4069 38.6274 42.4069 39.9512C42.4069 41.275 41.3336 42.3483 40.0098 42.3483Z" fill="white"/>
<path d="M32.0196 25.5689C36.4326 25.5689 40.0099 21.9916 40.0099 17.5787C40.0099 13.1657 36.4326 9.58838 32.0196 9.58838C27.6066 9.58838 24.0293 13.1657 24.0293 17.5787C24.034 21.9897 27.6085 25.5643 32.0196 25.5689ZM32.0196 11.1864C35.5497 11.1864 38.4118 14.0482 38.4118 17.5787C38.4118 21.1091 35.5497 23.9709 32.0196 23.9709C28.4891 23.9709 25.6274 21.1091 25.6274 17.5787C25.6313 14.0501 28.4907 11.1903 32.0196 11.1864Z" fill="white"/>
<path d="M32.0197 22.3725C34.6673 22.3725 36.8139 20.2259 36.8139 17.5783C36.8139 14.9308 34.6673 12.7842 32.0197 12.7842C29.3718 12.7842 27.2256 14.9308 27.2256 17.5783C27.2283 20.2251 29.373 22.3698 32.0197 22.3725ZM32.0197 14.3822C33.7848 14.3822 35.2159 15.8133 35.2159 17.5783C35.2159 19.3434 33.7848 20.7745 32.0197 20.7745C30.2543 20.7745 28.8236 19.3434 28.8236 17.5783C28.8236 15.8133 30.2543 14.3822 32.0197 14.3822Z" fill="white"/>
<path d="M43.2061 2.39708C43.2061 3.72086 44.2794 4.79417 45.6031 4.79417C46.9269 4.79417 48.0002 3.72086 48.0002 2.39708C48.0002 1.0733 46.9269 0 45.6031 0C44.2794 0 43.2061 1.0733 43.2061 2.39708ZM46.4022 2.39708C46.4022 2.83834 46.0444 3.19611 45.6031 3.19611C45.1619 3.19611 44.8041 2.83834 44.8041 2.39708C44.8041 1.95582 45.1619 1.59806 45.6031 1.59806C46.0444 1.59806 46.4022 1.95582 46.4022 2.39708Z" fill="white"/>
<path d="M22.4315 1.59806C22.4315 2.48058 21.7159 3.19611 20.8334 3.19611C19.9509 3.19611 19.2354 2.48058 19.2354 1.59806C19.2354 0.715536 19.9509 0 20.8334 0C21.7159 0 22.4315 0.715536 22.4315 1.59806Z" fill="white"/>
</g>
<defs>
<clipPath id="clip0">
<rect width="48" height="48" fill="white"/>
</clipPath>
</defs>
</svg>
