<svg width="48" height="48" viewBox="0 0 48 48" fill="none" xmlns="http://www.w3.org/2000/svg">
<path d="M41.707 10.293L31.707 0.292969C31.5195 0.105469 31.2656 0 30.9999 0H9.99994C7.79494 0 6 1.79391 6 4.00003V44.0001C6 46.2061 7.79494 48 10 48H38.0001C40.2051 48 42 46.2061 42 44V11C42 10.7344 41.8945 10.4805 41.707 10.293ZM32 3.41409L38.5859 10H33.9999C32.8964 10 32 9.10256 32 8.00006V3.41409ZM40 44C40 45.1025 39.1035 45.9999 38.0001 45.9999H10C8.8965 45.9999 8.00006 45.1025 8.00006 44V4.00003C8.00006 2.89753 8.89659 2.00006 10 2.00006H30V8.00006C30 10.2061 31.7949 12 34 12H40V44Z" fill="#005EB8"/>
<path d="M35 28H21C20.4473 28 20 28.4473 20 29C20 29.5528 20.4473 30.0001 21 30.0001H35C35.5528 30.0001 36 29.5528 36 29C36 28.4473 35.5528 28 35 28Z" fill="#005EB8"/>
<path d="M13 12.0001H25C25.5528 12.0001 26.0001 11.5528 26.0001 11C26.0001 10.4473 25.5528 10 25 10H13C12.4473 10 12 10.4473 12 11C12 11.5528 12.4473 12.0001 13 12.0001Z" fill="#005EB8"/>
<path d="M35 22H13C12.4473 22 12 22.4473 12 23C12 23.5528 12.4473 24.0001 13 24.0001H35.0001C35.5528 24.0001 36.0001 23.5528 36.0001 23C36 22.4473 35.5527 22 35 22Z" fill="#005EB8"/>
<path d="M12 17C12 17.5528 12.4473 18.0001 13 18.0001H35.0001C35.5528 18.0001 36.0001 17.5528 36.0001 17C36.0001 16.4473 35.5528 16 35.0001 16H13C12.4473 16.0001 12 16.4474 12 17Z" fill="#005EB8"/>
<path d="M26.2988 36.2872C24.8281 37.7345 22.9747 39.3653 22.2402 39.8614C22.0664 39.4678 21.8692 38.8096 21.75 38.4103C21.3438 37.0635 21.0254 36 20 36C19.123 36 18.7284 36.8018 18.1308 38.0147C17.8378 38.6084 17.2304 39.8448 17.0097 40.0001C16.7929 39.9776 16.4218 39.7246 16.0136 39.3438C17.1153 37.921 18 36.2735 18 35C18 32.8144 16.1602 32 15 32C13.8203 32 12 33.7178 12 36C12 37.0118 12.5605 38.2617 13.3554 39.3584C13.039 39.6748 12.7167 39.962 12.4003 40.2002C11.9589 40.5312 11.869 41.1582 12.1991 41.5996C12.3964 41.8623 12.6972 42 12.9999 42C13.2089 42 13.4198 41.9346 13.5996 41.7999C13.9453 41.5411 14.3164 41.2159 14.6894 40.8447C15.4726 41.5421 16.3046 42 17 42C18.3516 42 19.1542 40.462 19.8516 39.0469C20.3125 40.5743 20.7578 42 22 42C22.3341 42 23.3477 42 27.7013 37.7129C28.0957 37.3253 28.0997 36.6925 27.713 36.2989C27.3262 35.9034 26.6933 35.9014 26.2988 36.2872ZM14.6953 37.7735C14.2891 37.1544 14 36.5118 14 36C14 34.7803 14.8945 34.0664 15 34.0001C15.166 34.0001 16 34.0479 16 35.0001C16 35.6377 15.461 36.7139 14.6953 37.7735Z" fill="#005EB8"/>
</svg>
