<svg width="32" height="32" viewBox="0 0 32 32" fill="none" xmlns="http://www.w3.org/2000/svg">
<path fill-rule="evenodd" clip-rule="evenodd" d="M21.3582 14.2383L17.7649 10.6449L20.3622 8.04627L23.9542 11.6383L21.3582 14.2383ZM25.8715 9.78361L25.8702 9.78227L22.2195 6.13161C21.2315 5.14627 19.5342 5.09961 18.5982 6.03961L6.60354 18.0343C6.16887 18.4676 5.89954 19.0436 5.84354 19.6529L5.3382 25.2129C5.30354 25.6063 5.44354 25.9956 5.72354 26.2756C5.97554 26.5276 6.31554 26.6663 6.6662 26.6663C6.70754 26.6663 6.74754 26.6649 6.78754 26.6609L12.3475 26.1556C12.9582 26.0996 13.5329 25.8316 13.9662 25.3983L25.9622 13.4023C26.9329 12.4289 26.8915 10.8049 25.8715 9.78361Z" fill="#F0F8FF"/>
<mask id="mask0" mask-type="alpha" maskUnits="userSpaceOnUse" x="5" y="5" width="22" height="22">
<path fill-rule="evenodd" clip-rule="evenodd" d="M21.3582 14.2383L17.7649 10.6449L20.3622 8.04627L23.9542 11.6383L21.3582 14.2383ZM25.8715 9.78361L25.8702 9.78227L22.2195 6.13161C21.2315 5.14627 19.5342 5.09961 18.5982 6.03961L6.60354 18.0343C6.16887 18.4676 5.89954 19.0436 5.84354 19.6529L5.3382 25.2129C5.30354 25.6063 5.44354 25.9956 5.72354 26.2756C5.97554 26.5276 6.31554 26.6663 6.6662 26.6663C6.70754 26.6663 6.74754 26.6649 6.78754 26.6609L12.3475 26.1556C12.9582 26.0996 13.5329 25.8316 13.9662 25.3983L25.9622 13.4023C26.9329 12.4289 26.8915 10.8049 25.8715 9.78361Z" fill="white"/>
</mask>
<g mask="url(#mask0)">
<rect width="32" height="32" fill="#F0F8FF"/>
</g>
</svg>
