<?xml version="1.0" encoding="utf-8"?>
<!-- Svg Vector Icons : http://www.onlinewebfonts.com/icon -->
<!DOCTYPE svg PUBLIC "-//W3C//DTD SVG 1.1//EN" "http://www.w3.org/Graphics/SVG/1.1/DTD/svg11.dtd">
<svg version="1.1" xmlns="http://www.w3.org/2000/svg" xmlns:xlink="http://www.w3.org/1999/xlink" x="0px" y="0px" viewBox="0 0 1000 1000" enable-background="new 0 0 1000 1000" xml:space="preserve">
<metadata> Svg Vector Icons : http://www.onlinewebfonts.com/icon </metadata>
<g><path fill="#E4002B" d="M500,10C229.4,10,10,229.4,10,500c0,270.6,219.4,490,490,490c270.6,0,490-219.4,490-490C990,229.4,770.6,10,500,10z M500,947.4C252.9,947.4,52.6,747.1,52.6,500C52.6,252.9,252.9,52.6,500,52.6c247.1,0,447.4,200.3,447.4,447.4C947.4,747.1,747.1,947.4,500,947.4z M500,160.8c-41.6,0-75.4,33.7-75.4,75.4c0,0,37.5,321.9,37.7,330.9c0.8,27,6.5,46,37.7,46c30.8,0,36.7-18.4,37.6-44.9c0.3-9.3,37.8-332.1,37.8-332.1C575.4,194.5,541.6,160.8,500,160.8z M500,688.5c-41.6,0-75.4,33.8-75.4,75.4c0,41.7,33.8,75.4,75.4,75.4c41.6,0,75.4-33.7,75.4-75.4C575.4,722.2,541.6,688.5,500,688.5z"/></g>
</svg>