<svg width="24" height="24" viewBox="0 0 24 24" fill="none" xmlns="http://www.w3.org/2000/svg">
<g id="Icon/Fill/eye-off">
<path id="Mask" fill-rule="evenodd" clip-rule="evenodd" d="M19.407 17.9928L20.707 19.2928C21.098 19.6838 21.098 20.3158 20.707 20.7068C20.512 20.9018 20.256 20.9998 20 20.9998C19.744 20.9998 19.488 20.9018 19.293 20.7068L16.586 17.9998L16 17.4138L14.655 16.0688L14.586 15.9998L12.0837 13.4975C12.056 13.499 12.0281 13.4998 12 13.4998C11.173 13.4998 10.5 12.8268 10.5 11.9998C10.5 11.9717 10.5008 11.9438 10.5023 11.9161L7.283 8.69676L5.532 6.94576L3.293 4.70676C2.902 4.31576 2.902 3.68376 3.293 3.29276C3.684 2.90176 4.316 2.90176 4.707 3.29276L6.42 5.00576L7.885 6.47076L11.9163 10.5021C11.944 10.5005 11.9719 10.4998 12 10.4998C12.827 10.4998 13.5 11.1728 13.5 11.9998C13.5 12.0278 13.4992 12.0557 13.4977 12.0835L17.414 15.9998L19.407 17.9928ZM8.5928 5.76396L11.3898 8.56096C11.5888 8.52596 11.7908 8.49996 11.9998 8.49996C13.9298 8.49996 15.4998 10.07 15.4998 12C15.4998 12.209 15.4738 12.411 15.4388 12.61L18.1208 15.293L18.9548 16.127C20.4768 14.739 21.4528 13.22 21.8678 12.497C22.0438 12.189 22.0438 11.81 21.8678 11.502C21.2298 10.39 17.7058 4.81596 11.7298 5.00296C10.5458 5.03396 9.4738 5.28896 8.5018 5.67396L8.5928 5.76396ZM13.948 16.7769L15.293 18.1209L15.498 18.3259C14.526 18.7109 13.455 18.9659 12.271 18.9959C12.189 18.9989 12.106 18.9999 12.025 18.9999C6.162 18.9999 2.762 13.5949 2.132 12.4969C1.956 12.1889 1.956 11.8099 2.132 11.5019C2.547 10.7799 3.523 9.26086 5.045 7.87286L6.576 9.40486L8.562 11.3899C8.526 11.5889 8.5 11.7909 8.5 11.9999C8.5 13.9299 10.07 15.4999 12 15.4999C12.209 15.4999 12.411 15.4739 12.61 15.4379L13.879 16.7069L13.948 16.7769Z" fill="#231F20"/>
<mask id="mask0" mask-type="alpha" maskUnits="userSpaceOnUse" x="2" y="2" width="20" height="19">
<path id="Mask_2" fill-rule="evenodd" clip-rule="evenodd" d="M19.407 17.9928L20.707 19.2928C21.098 19.6838 21.098 20.3158 20.707 20.7068C20.512 20.9018 20.256 20.9998 20 20.9998C19.744 20.9998 19.488 20.9018 19.293 20.7068L16.586 17.9998L16 17.4138L14.655 16.0688L14.586 15.9998L12.0837 13.4975C12.056 13.499 12.0281 13.4998 12 13.4998C11.173 13.4998 10.5 12.8268 10.5 11.9998C10.5 11.9717 10.5008 11.9438 10.5023 11.9161L7.283 8.69676L5.532 6.94576L3.293 4.70676C2.902 4.31576 2.902 3.68376 3.293 3.29276C3.684 2.90176 4.316 2.90176 4.707 3.29276L6.42 5.00576L7.885 6.47076L11.9163 10.5021C11.944 10.5005 11.9719 10.4998 12 10.4998C12.827 10.4998 13.5 11.1728 13.5 11.9998C13.5 12.0278 13.4992 12.0557 13.4977 12.0835L17.414 15.9998L19.407 17.9928ZM8.5928 5.76396L11.3898 8.56096C11.5888 8.52596 11.7908 8.49996 11.9998 8.49996C13.9298 8.49996 15.4998 10.07 15.4998 12C15.4998 12.209 15.4738 12.411 15.4388 12.61L18.1208 15.293L18.9548 16.127C20.4768 14.739 21.4528 13.22 21.8678 12.497C22.0438 12.189 22.0438 11.81 21.8678 11.502C21.2298 10.39 17.7058 4.81596 11.7298 5.00296C10.5458 5.03396 9.4738 5.28896 8.5018 5.67396L8.5928 5.76396ZM13.948 16.7769L15.293 18.1209L15.498 18.3259C14.526 18.7109 13.455 18.9659 12.271 18.9959C12.189 18.9989 12.106 18.9999 12.025 18.9999C6.162 18.9999 2.762 13.5949 2.132 12.4969C1.956 12.1889 1.956 11.8099 2.132 11.5019C2.547 10.7799 3.523 9.26086 5.045 7.87286L6.576 9.40486L8.562 11.3899C8.526 11.5889 8.5 11.7909 8.5 11.9999C8.5 13.9299 10.07 15.4999 12 15.4999C12.209 15.4999 12.411 15.4739 12.61 15.4379L13.879 16.7069L13.948 16.7769Z" fill="white"/>
</mask>
<g mask="url(#mask0)">
<g id="&#240;&#159;&#142;&#168; Color">
<rect id="Base" width="24" height="24" fill="#656D74"/>
</g>
</g>
</g>
</svg>
