<svg width="24" height="24" viewBox="0 0 24 24" fill="none" xmlns="http://www.w3.org/2000/svg">
<g id="Icon/Fill/eye">
<path id="Mask" fill-rule="evenodd" clip-rule="evenodd" d="M12 10.4999C11.173 10.4999 10.5 11.1729 10.5 11.9999C10.5 12.8269 11.173 13.4999 12 13.4999C12.827 13.4999 13.5 12.8269 13.5 11.9999C13.5 11.1729 12.827 10.4999 12 10.4999ZM12 15.4999C10.07 15.4999 8.5 13.9299 8.5 11.9999C8.5 10.0699 10.07 8.49989 12 8.49989C13.93 8.49989 15.5 10.0699 15.5 11.9999C15.5 13.9299 13.93 15.4999 12 15.4999ZM21.868 11.5019C21.229 10.3899 17.706 4.81589 11.729 5.00289C6.202 5.14389 2.986 10.0139 2.132 11.5019C1.956 11.8109 1.956 12.1889 2.132 12.4979C2.762 13.5949 6.162 18.9999 12.025 18.9999C12.106 18.9999 12.188 18.9989 12.271 18.9969C17.798 18.8559 21.014 13.9859 21.868 12.4979C22.044 12.1889 22.044 11.8109 21.868 11.5019Z" fill="#231F20"/>
<mask id="mask0" mask-type="alpha" maskUnits="userSpaceOnUse" x="2" y="4" width="20" height="15">
<path id="Mask_2" fill-rule="evenodd" clip-rule="evenodd" d="M12 10.4999C11.173 10.4999 10.5 11.1729 10.5 11.9999C10.5 12.8269 11.173 13.4999 12 13.4999C12.827 13.4999 13.5 12.8269 13.5 11.9999C13.5 11.1729 12.827 10.4999 12 10.4999ZM12 15.4999C10.07 15.4999 8.5 13.9299 8.5 11.9999C8.5 10.0699 10.07 8.49989 12 8.49989C13.93 8.49989 15.5 10.0699 15.5 11.9999C15.5 13.9299 13.93 15.4999 12 15.4999ZM21.868 11.5019C21.229 10.3899 17.706 4.81589 11.729 5.00289C6.202 5.14389 2.986 10.0139 2.132 11.5019C1.956 11.8109 1.956 12.1889 2.132 12.4979C2.762 13.5949 6.162 18.9999 12.025 18.9999C12.106 18.9999 12.188 18.9989 12.271 18.9969C17.798 18.8559 21.014 13.9859 21.868 12.4979C22.044 12.1889 22.044 11.8109 21.868 11.5019Z" fill="white"/>
</mask>
<g mask="url(#mask0)">
<g id="&#240;&#159;&#142;&#168; Color">
<rect id="Base" width="24" height="24" fill="#005EB8"/>
</g>
</g>
</g>
</svg>
