<svg width="189" height="81" viewBox="0 0 189 81" fill="none" xmlns="http://www.w3.org/2000/svg">
<path d="M54.3606 37.0965V18.3535H60.3658L66.3709 24.6984L71.9082 18.3535H77.7574V37.0965H71.0503V27.9073L66.215 33.0853H66.059L60.9897 27.9073V37.0965H54.3606Z" fill="white"/>
<path d="M80.5652 27.6876C80.5652 24.8432 81.5791 22.5094 83.6068 20.6132C85.6345 18.717 88.3641 17.8418 91.7177 17.8418C95.0712 17.8418 97.8008 18.7899 99.7506 20.6132C101.778 22.5094 102.792 24.8432 102.792 27.6876C102.792 30.5319 101.778 32.8657 99.7506 34.762C97.7228 36.6582 95.0712 37.5334 91.7177 37.5334C88.3641 37.5334 85.6345 36.5853 83.6068 34.762C81.5791 32.9387 80.5652 30.6049 80.5652 27.6876ZM91.6397 31.7718C93.9794 31.7718 95.6171 30.2402 95.6171 27.7605C95.6171 25.4267 93.9014 23.7493 91.6397 23.7493C89.378 23.7493 87.6622 25.3538 87.6622 27.7605C87.6622 30.0214 89.378 31.7718 91.6397 31.7718Z" fill="white"/>
<path d="M112.229 37.0961H105.522V18.3531H112.229V28.1257L119.326 18.3531H126.033V37.0961H119.326V27.3235L112.229 37.0961ZM114.101 9.23682C114.101 10.8413 114.725 11.6435 115.973 11.6435C117.064 11.6435 117.688 10.8413 117.688 9.23682H123.46C123.46 13.3209 120.808 16.311 115.973 16.311C110.747 16.311 108.33 13.4668 108.33 9.23682H114.101Z" fill="white"/>
<path d="M19.1877 35.1267C18.4858 36.0748 17.6279 36.6583 16.6141 37.0229C15.6002 37.3876 14.3524 37.6793 12.8706 37.8252C11.3888 38.044 10.1409 38.4086 8.9711 38.8462C5.92952 40.1589 4.29174 43.1491 3.90179 47.8896H3.97978C5.3056 45.2641 8.50317 43.5138 11.8567 43.5138C17.5499 43.5138 21.1374 47.1603 21.1374 52.8489C21.1374 55.4744 20.1236 57.8082 18.2518 59.6315C16.3021 61.5277 13.8844 62.4028 10.8428 62.4028C7.56729 62.4028 4.99365 61.3818 3.1219 59.2668C1.32815 57.2247 0.392273 54.3804 0.392273 50.8068C0.392273 42.7115 2.88793 37.6793 7.80126 35.7102C8.9711 35.1997 10.2969 34.9079 11.7007 34.6891C14.5083 34.2516 16.0681 33.9598 17.238 32.5012L19.1877 35.1267ZM10.9208 59.3397C12.8706 59.3397 14.4304 58.6834 15.6002 57.5165C16.848 56.2766 17.4719 54.818 17.4719 52.9948C17.4719 49.2024 15.1323 46.6498 11.0768 46.6498C9.28306 46.6498 7.80126 47.0874 6.55343 48.0355C5.3056 48.9836 4.52571 50.0775 4.21375 51.3903C4.13576 56.2037 6.94338 59.3397 10.9208 59.3397Z" fill="white"/>
<path d="M28.0008 62.0387H24.4133V43.2954H28.0008V57.2253L39.5432 43.2954H43.1307V62.0387H39.5432V48.1089L28.0008 62.0387Z" fill="white"/>
<path d="M49.4478 61.7462C47.81 61.2357 46.6402 60.6523 46.0162 59.9229L47.81 57.4433C49.4478 58.6831 51.8654 59.4854 53.7372 59.4854C56.7788 59.4854 58.9625 58.2455 58.9625 56.4223C58.9625 54.8907 57.4807 54.0155 55.063 54.0155H51.7095V51.3171H54.829C56.8568 51.3171 58.2606 50.1502 58.2606 48.6916C58.2606 47.0141 56.6228 45.9931 53.9711 45.9931C51.8654 45.9931 49.8377 46.7224 47.966 48.0352L46.5622 45.4826C48.1999 43.951 51.2415 43.0029 54.4391 43.0029C59.2744 43.0029 61.9261 44.8991 61.9261 48.0352C61.9261 50.2231 60.7562 51.6817 58.4165 52.411V52.484C61.0682 52.7757 62.628 54.599 62.628 56.8598C62.628 60.2876 59.1964 62.4755 54.1271 62.4755C52.7233 62.4026 51.0855 62.1838 49.4478 61.7462Z" fill="white"/>
<path d="M80.9554 62.0387V54.0892H69.803V61.9658H66.2155V43.2954H69.803V51.0261H80.9554V43.2954H84.5429V62.0387H80.9554Z" fill="white"/>
<path d="M105.912 59.9959C103.962 61.6004 101.467 62.4755 98.4249 62.4755C95.1494 62.4755 92.5757 61.6004 90.626 59.85C88.6762 58.0267 87.6624 55.6929 87.6624 52.7757C87.6624 49.9314 88.5983 47.5976 90.392 45.7743C92.1858 43.8781 94.7594 43.0029 97.957 43.0029C100.609 43.0029 102.792 43.8052 104.586 45.4097C106.38 47.0141 107.238 49.0562 107.238 51.5359C107.238 52.411 107.16 53.1404 107.004 53.7967H91.6398C91.9518 57.2974 94.6814 59.4124 98.5809 59.4124C101.233 59.4124 103.26 58.756 104.742 57.4433L105.912 59.9959ZM91.4839 51.0254H103.65C103.494 47.8893 101.311 46.066 97.879 46.066C94.2915 45.9931 91.8738 48.0352 91.4839 51.0254Z" fill="white"/>
<path d="M127.047 59.3395C125.409 61.3086 122.524 62.4755 119.326 62.4755C116.128 62.4755 113.555 61.6004 111.527 59.85C109.577 58.0267 108.563 55.6929 108.563 52.7757C108.563 50.0043 109.577 47.6705 111.449 45.8472C113.399 43.951 115.816 43.0029 118.702 43.0029C122.212 43.0029 124.863 43.8052 126.579 45.4826L124.941 48.1081C123.459 46.7953 121.51 46.139 119.17 46.139C117.298 46.139 115.738 46.7953 114.335 48.0352C113.009 49.275 112.307 50.8795 112.307 52.7757C112.307 54.7448 113.009 56.4223 114.335 57.5891C115.738 58.829 117.454 59.4124 119.482 59.4124C121.822 59.4124 123.693 58.6102 125.253 57.0057L127.047 59.3395Z" fill="white"/>
<path d="M168.537 67.9454L161.83 61.6733L155.201 67.9454L161.83 81.0001L168.537 67.9454Z" fill="#E4002B"/>
<path d="M161.831 25.792C159.257 25.792 157.151 27.7612 157.151 30.1679C157.151 32.5747 159.257 34.5439 161.831 34.5439C164.404 34.5439 166.51 32.5747 166.51 30.1679C166.432 27.7612 164.404 25.792 161.831 25.792Z" fill="white"/>
<path d="M161.83 6.3186C160.426 6.97498 141.943 16.0914 141.943 30.7505C141.943 43.2217 152.783 62.1838 152.783 62.1838L161.83 53.7238L170.877 62.1838C170.877 62.1838 181.717 43.2217 181.717 30.7505C181.717 16.1643 163.234 6.97498 161.83 6.3186ZM167.835 47.9622L161.908 42.4195L155.981 47.9622C155.669 47.16 151.692 37.0955 151.692 30.5317C151.692 21.6341 161.206 16.6748 161.908 16.3102C162.61 16.6748 172.125 21.6341 172.125 30.5317C172.125 37.0955 168.147 47.2329 167.835 47.9622Z" fill="white"/>
<path d="M181.77 -2.03175e-05L174.987 6.34302L181.77 12.6861L188.553 6.34302L181.77 -2.03175e-05Z" fill="white"/>
</svg>
