<svg width="37" height="36" viewBox="0 0 37 36" fill="none" xmlns="http://www.w3.org/2000/svg">
<g clip-path="url(#clip0)">
<path d="M18.3919 14.4204C16.4186 14.4204 14.8119 16.0263 14.8119 17.9996C14.8119 19.9737 16.4186 21.5804 18.3919 21.5804C20.3659 21.5804 21.9719 19.9737 21.9719 17.9996C21.9719 16.0263 20.3659 14.4204 18.3919 14.4204ZM18.3919 14.4204C16.4186 14.4204 14.8119 16.0263 14.8119 17.9996C14.8119 19.9737 16.4186 21.5804 18.3919 21.5804C20.3659 21.5804 21.9719 19.9737 21.9719 17.9996C21.9719 16.0263 20.3659 14.4204 18.3919 14.4204ZM24.3559 8.5835H12.4286C10.5249 8.5835 8.97578 10.1326 8.97578 12.0363V23.9637C8.97578 25.8674 10.5249 27.4165 12.4286 27.4165H24.3559C26.2597 27.4165 27.8088 25.8674 27.8088 23.9637V12.0363C27.8088 10.1326 26.2597 8.5835 24.3559 8.5835ZM18.3919 24.1999C14.9738 24.1999 12.1924 21.4185 12.1924 17.9996C12.1924 14.5815 14.9738 11.8001 18.3919 11.8001C21.8107 11.8001 24.5921 14.5815 24.5921 17.9996C24.5921 21.4185 21.8107 24.1999 18.3919 24.1999ZM24.7912 13.0822C23.9823 13.0822 23.3243 12.4242 23.3243 11.6153C23.3243 10.8064 23.9823 10.1484 24.7912 10.1484C25.6001 10.1484 26.2581 10.8064 26.2581 11.6153C26.2581 12.4242 25.6001 13.0822 24.7912 13.0822ZM18.3919 14.4204C16.4186 14.4204 14.8119 16.0263 14.8119 17.9996C14.8119 19.9737 16.4186 21.5804 18.3919 21.5804C20.3659 21.5804 21.9719 19.9737 21.9719 17.9996C21.9719 16.0263 20.3659 14.4204 18.3919 14.4204ZM24.3559 8.5835H12.4286C10.5249 8.5835 8.97578 10.1326 8.97578 12.0363V23.9637C8.97578 25.8674 10.5249 27.4165 12.4286 27.4165H24.3559C26.2597 27.4165 27.8088 25.8674 27.8088 23.9637V12.0363C27.8088 10.1326 26.2597 8.5835 24.3559 8.5835ZM18.3919 24.1999C14.9738 24.1999 12.1924 21.4185 12.1924 17.9996C12.1924 14.5815 14.9738 11.8001 18.3919 11.8001C21.8107 11.8001 24.5921 14.5815 24.5921 17.9996C24.5921 21.4185 21.8107 24.1999 18.3919 24.1999ZM24.7912 13.0822C23.9823 13.0822 23.3243 12.4242 23.3243 11.6153C23.3243 10.8064 23.9823 10.1484 24.7912 10.1484C25.6001 10.1484 26.2581 10.8064 26.2581 11.6153C26.2581 12.4242 25.6001 13.0822 24.7912 13.0822ZM18.3919 14.4204C16.4186 14.4204 14.8119 16.0263 14.8119 17.9996C14.8119 19.9737 16.4186 21.5804 18.3919 21.5804C20.3659 21.5804 21.9719 19.9737 21.9719 17.9996C21.9719 16.0263 20.3659 14.4204 18.3919 14.4204ZM0.392273 0V36H36.3923V0H0.392273ZM30.4282 23.9637C30.4282 27.3122 27.7045 30.0359 24.3559 30.0359H12.4286C9.08005 30.0359 6.35633 27.3122 6.35633 23.9637V12.0363C6.35633 8.68778 9.08005 5.96406 12.4286 5.96406H24.3559C27.7045 5.96406 30.4282 8.68778 30.4282 12.0363V23.9637ZM24.3559 8.5835H12.4286C10.5249 8.5835 8.97578 10.1326 8.97578 12.0363V23.9637C8.97578 25.8674 10.5249 27.4165 12.4286 27.4165H24.3559C26.2597 27.4165 27.8088 25.8674 27.8088 23.9637V12.0363C27.8088 10.1326 26.2597 8.5835 24.3559 8.5835ZM18.3919 24.1999C14.9738 24.1999 12.1924 21.4185 12.1924 17.9996C12.1924 14.5815 14.9738 11.8001 18.3919 11.8001C21.8107 11.8001 24.5921 14.5815 24.5921 17.9996C24.5921 21.4185 21.8107 24.1999 18.3919 24.1999ZM24.7912 13.0822C23.9823 13.0822 23.3243 12.4242 23.3243 11.6153C23.3243 10.8064 23.9823 10.1484 24.7912 10.1484C25.6001 10.1484 26.2581 10.8064 26.2581 11.6153C26.2581 12.4242 25.6001 13.0822 24.7912 13.0822ZM18.3919 14.4204C16.4186 14.4204 14.8119 16.0263 14.8119 17.9996C14.8119 19.9737 16.4186 21.5804 18.3919 21.5804C20.3659 21.5804 21.9719 19.9737 21.9719 17.9996C21.9719 16.0263 20.3659 14.4204 18.3919 14.4204ZM18.3919 14.4204C16.4186 14.4204 14.8119 16.0263 14.8119 17.9996C14.8119 19.9737 16.4186 21.5804 18.3919 21.5804C20.3659 21.5804 21.9719 19.9737 21.9719 17.9996C21.9719 16.0263 20.3659 14.4204 18.3919 14.4204ZM18.3919 14.4204C16.4186 14.4204 14.8119 16.0263 14.8119 17.9996C14.8119 19.9737 16.4186 21.5804 18.3919 21.5804C20.3659 21.5804 21.9719 19.9737 21.9719 17.9996C21.9719 16.0263 20.3659 14.4204 18.3919 14.4204ZM24.3559 8.5835H12.4286C10.5249 8.5835 8.97578 10.1326 8.97578 12.0363V23.9637C8.97578 25.8674 10.5249 27.4165 12.4286 27.4165H24.3559C26.2597 27.4165 27.8088 25.8674 27.8088 23.9637V12.0363C27.8088 10.1326 26.2597 8.5835 24.3559 8.5835ZM18.3919 24.1999C14.9738 24.1999 12.1924 21.4185 12.1924 17.9996C12.1924 14.5815 14.9738 11.8001 18.3919 11.8001C21.8107 11.8001 24.5921 14.5815 24.5921 17.9996C24.5921 21.4185 21.8107 24.1999 18.3919 24.1999ZM24.7912 13.0822C23.9823 13.0822 23.3243 12.4242 23.3243 11.6153C23.3243 10.8064 23.9823 10.1484 24.7912 10.1484C25.6001 10.1484 26.2581 10.8064 26.2581 11.6153C26.2581 12.4242 25.6001 13.0822 24.7912 13.0822ZM18.3919 14.4204C16.4186 14.4204 14.8119 16.0263 14.8119 17.9996C14.8119 19.9737 16.4186 21.5804 18.3919 21.5804C20.3659 21.5804 21.9719 19.9737 21.9719 17.9996C21.9719 16.0263 20.3659 14.4204 18.3919 14.4204ZM18.3919 14.4204C16.4186 14.4204 14.8119 16.0263 14.8119 17.9996C14.8119 19.9737 16.4186 21.5804 18.3919 21.5804C20.3659 21.5804 21.9719 19.9737 21.9719 17.9996C21.9719 16.0263 20.3659 14.4204 18.3919 14.4204ZM18.3919 14.4204C16.4186 14.4204 14.8119 16.0263 14.8119 17.9996C14.8119 19.9737 16.4186 21.5804 18.3919 21.5804C20.3659 21.5804 21.9719 19.9737 21.9719 17.9996C21.9719 16.0263 20.3659 14.4204 18.3919 14.4204ZM24.3559 8.5835H12.4286C10.5249 8.5835 8.97578 10.1326 8.97578 12.0363V23.9637C8.97578 25.8674 10.5249 27.4165 12.4286 27.4165H24.3559C26.2597 27.4165 27.8088 25.8674 27.8088 23.9637V12.0363C27.8088 10.1326 26.2597 8.5835 24.3559 8.5835ZM18.3919 24.1999C14.9738 24.1999 12.1924 21.4185 12.1924 17.9996C12.1924 14.5815 14.9738 11.8001 18.3919 11.8001C21.8107 11.8001 24.5921 14.5815 24.5921 17.9996C24.5921 21.4185 21.8107 24.1999 18.3919 24.1999ZM24.7912 13.0822C23.9823 13.0822 23.3243 12.4242 23.3243 11.6153C23.3243 10.8064 23.9823 10.1484 24.7912 10.1484C25.6001 10.1484 26.2581 10.8064 26.2581 11.6153C26.2581 12.4242 25.6001 13.0822 24.7912 13.0822ZM18.3919 14.4204C16.4186 14.4204 14.8119 16.0263 14.8119 17.9996C14.8119 19.9737 16.4186 21.5804 18.3919 21.5804C20.3659 21.5804 21.9719 19.9737 21.9719 17.9996C21.9719 16.0263 20.3659 14.4204 18.3919 14.4204Z" fill="white"/>
</g>
<defs>
<clipPath id="clip0">
<rect x="0.392273" width="36" height="36" rx="2" fill="white"/>
</clipPath>
</defs>
</svg>
