<svg width="132" height="60" viewBox="0 0 132 60" fill="none" xmlns="http://www.w3.org/2000/svg">
<path d="M37.8604 27.4374V13.5743H42.0732L46.286 18.2673L50.1705 13.5743H54.2739V27.4374H49.5687V20.6407L46.1766 24.4706H46.0672L42.5109 20.6407V27.4374H37.8604Z" fill="#005EB8"/>
<path d="M56.2436 20.4789C56.2436 18.3751 56.9549 16.649 58.3774 15.2465C59.7999 13.844 61.7148 13.1967 64.0674 13.1967C66.42 13.1967 68.3349 13.8979 69.7027 15.2465C71.1252 16.649 71.8364 18.3751 71.8364 20.4789C71.8364 22.5826 71.1252 24.3088 69.7027 25.7113C68.2802 27.1138 66.42 27.7611 64.0674 27.7611C61.7148 27.7611 59.7999 27.0598 58.3774 25.7113C56.9549 24.3627 56.2436 22.6366 56.2436 20.4789ZM64.0127 23.4996C65.654 23.4996 66.803 22.3669 66.803 20.5328C66.803 18.8067 65.5993 17.566 64.0127 17.566C62.426 17.566 61.2224 18.7527 61.2224 20.5328C61.2224 22.205 62.426 23.4996 64.0127 23.4996Z" fill="#005EB8"/>
<path d="M78.4565 27.4374H73.7513V13.5743H78.4565V20.8025L83.4352 13.5743H88.1404V27.4374H83.4352V20.2091L78.4565 27.4374ZM79.7696 6.83148C79.7696 8.01821 80.2073 8.61157 81.0826 8.61157C81.8486 8.61157 82.2863 8.01821 82.2863 6.83148H86.335C86.335 9.85224 84.4748 12.0639 81.0826 12.0639C77.417 12.0639 75.7209 9.96013 75.7209 6.83148H79.7696Z" fill="#005EB8"/>
<path d="M13.1855 25.9809C12.6931 26.6822 12.0913 27.1137 11.38 27.3834C10.6688 27.6531 9.79338 27.8689 8.75386 27.9768C7.71434 28.1386 6.83895 28.4083 6.01828 28.732C3.88453 29.7029 2.73558 31.9146 2.46202 35.4208H2.51674C3.44683 33.4789 5.69001 32.1843 8.04261 32.1843C12.0366 32.1843 14.5533 34.8814 14.5533 39.0889C14.5533 41.0308 13.842 42.7569 12.529 44.1055C11.1612 45.508 9.46511 46.1553 7.33136 46.1553C5.03347 46.1553 3.22799 45.4001 1.91491 43.8358C0.65654 42.3254 0 40.2217 0 37.5785C0 31.5909 1.75077 27.8689 5.19761 26.4125C6.01828 26.0349 6.94838 25.8191 7.93319 25.6573C9.90281 25.3336 10.997 25.1178 11.8177 24.039L13.1855 25.9809ZM7.38607 43.8897C8.75386 43.8897 9.84809 43.4042 10.6688 42.5412C11.5442 41.6242 11.9818 40.5453 11.9818 39.1968C11.9818 36.3918 10.3405 34.5038 7.49549 34.5038C6.23713 34.5038 5.19761 34.8274 4.32222 35.5287C3.44683 36.2299 2.89972 37.0391 2.68087 38.01C2.62616 41.5702 4.59578 43.8897 7.38607 43.8897Z" fill="#005EB8"/>
<path d="M19.368 45.8856H16.8512V32.0224H19.368V42.3254L27.4653 32.0224H29.982V45.8856H27.4653V35.5826L19.368 45.8856Z" fill="#005EB8"/>
<path d="M34.4136 45.6699C33.2647 45.2923 32.444 44.8608 32.0063 44.3214L33.2647 42.4873C34.4136 43.4044 36.1097 43.9977 37.4228 43.9977C39.5565 43.9977 41.0885 43.0807 41.0885 41.7322C41.0885 40.5994 40.0489 39.9521 38.3529 39.9521H36.0003V37.9562H38.1887C39.6112 37.9562 40.596 37.0931 40.596 36.0143C40.596 34.7736 39.4471 34.0184 37.5869 34.0184C36.1097 34.0184 34.6872 34.5578 33.3741 35.5288L32.3893 33.6408C33.5382 32.508 35.672 31.8068 37.9152 31.8068C41.3073 31.8068 43.1675 33.2093 43.1675 35.5288C43.1675 37.1471 42.3468 38.2259 40.7055 38.7653V38.8193C42.5657 39.035 43.6599 40.3836 43.6599 42.0558C43.6599 44.5911 41.2526 46.2094 37.6963 46.2094C36.7115 46.1554 35.5626 45.9936 34.4136 45.6699Z" fill="#005EB8"/>
<path d="M56.5171 45.8856V40.0059H48.6933V45.8316H46.1766V32.0224H48.6933V37.7403H56.5171V32.0224H59.0338V45.8856H56.5171Z" fill="#005EB8"/>
<path d="M74.0248 44.3753C72.657 45.5621 70.9063 46.2094 68.7725 46.2094C66.4746 46.2094 64.6691 45.5621 63.3013 44.2674C61.9335 42.9189 61.2223 41.1927 61.2223 39.035C61.2223 36.9313 61.8788 35.2052 63.1372 33.8566C64.3956 32.4541 66.201 31.8068 68.4442 31.8068C70.3044 31.8068 71.8364 32.4002 73.0947 33.5869C74.3531 34.7736 74.9549 36.284 74.9549 38.118C74.9549 38.7653 74.9002 39.3048 74.7908 39.7902H64.0126C64.2314 42.3795 66.1463 43.9438 68.8819 43.9438C70.7421 43.9438 72.1646 43.4583 73.2041 42.4873L74.0248 44.3753ZM63.9032 37.7404H72.4382C72.3288 35.4209 70.7968 34.0724 68.3895 34.0724C65.8728 34.0184 64.1767 35.5288 63.9032 37.7404Z" fill="#005EB8"/>
<path d="M88.8517 43.8898C87.7027 45.3463 85.6784 46.2094 83.4352 46.2094C81.1921 46.2094 79.3866 45.5621 77.9641 44.2674C76.5963 42.9189 75.885 41.1927 75.885 39.035C75.885 36.9852 76.5963 35.2591 77.9094 33.9105C79.2772 32.508 80.9732 31.8068 82.9975 31.8068C85.4596 31.8068 87.3198 32.4002 88.5234 33.6408L87.3745 35.5827C86.335 34.6118 84.9672 34.1263 83.3258 34.1263C82.0127 34.1263 80.9185 34.6118 79.9337 35.5288C79.0036 36.4458 78.5112 37.6326 78.5112 39.035C78.5112 40.4915 79.0036 41.7322 79.9337 42.5952C80.9185 43.5122 82.1222 43.9438 83.5447 43.9438C85.186 43.9438 86.4991 43.3504 87.5933 42.1637L88.8517 43.8898Z" fill="#005EB8"/>
<path d="M117.958 50.2551L113.253 45.6161L108.603 50.2551L113.253 59.9107L117.958 50.2551Z" fill="#E4002B"/>
<path d="M113.253 19.0766C111.448 19.0766 109.97 20.533 109.97 22.3131C109.97 24.0932 111.448 25.5496 113.253 25.5496C115.059 25.5496 116.536 24.0932 116.536 22.3131C116.481 20.533 115.059 19.0766 113.253 19.0766Z" fill="#005EB8"/>
<path d="M113.253 4.67374C112.268 5.15922 99.3017 11.902 99.3017 22.7444C99.3017 31.9685 106.907 45.9935 106.907 45.9935L113.253 39.7362L119.6 45.9935C119.6 45.9935 127.205 31.9685 127.205 22.7444C127.205 11.9559 114.238 5.15922 113.253 4.67374ZM117.466 35.4747L113.308 31.3751L109.15 35.4747C108.931 34.8814 106.141 27.4373 106.141 22.5825C106.141 16.0016 112.815 12.3335 113.308 12.0638C113.8 12.3335 120.475 16.0016 120.475 22.5825C120.475 27.4373 117.685 34.9353 117.466 35.4747Z" fill="#005EB8"/>
<path d="M127.242 3.2286e-05L122.483 4.69157L127.242 9.3831L132 4.69156L127.242 3.2286e-05Z" fill="#005EB8"/>
</svg>
