<svg width="38" height="38" viewBox="0 0 38 38" fill="none" xmlns="http://www.w3.org/2000/svg">
<path fill-rule="evenodd" clip-rule="evenodd" d="M6.25149 9.5H31.7479C32.5744 9.5 33.2505 10.1761 33.2505 11.0026V11.1641C33.2505 11.9906 32.5744 12.6667 31.7479 12.6667H6.25149C5.42499 12.6667 4.75049 11.9906 4.75049 11.1641V11.0026C4.75049 10.1761 5.42499 9.5 6.25149 9.5ZM31.7479 17.4167H6.25149C5.42499 17.4167 4.75049 18.0928 4.75049 18.9193V19.0808C4.75049 19.9073 5.42499 20.5833 6.25149 20.5833H31.7479C32.5744 20.5833 33.2505 19.9073 33.2505 19.0808V18.9193C33.2505 18.0928 32.5744 17.4167 31.7479 17.4167ZM31.7479 25.3333H6.25149C5.42499 25.3333 4.75049 26.0094 4.75049 26.8359V26.9974C4.75049 27.8239 5.42499 28.5 6.25149 28.5H31.7479C32.5744 28.5 33.2505 27.8239 33.2505 26.9974V26.8359C33.2505 26.0094 32.5744 25.3333 31.7479 25.3333Z" fill="#231F20"/>
<mask id="mask0" mask-type="alpha" maskUnits="userSpaceOnUse" x="4" y="9" width="30" height="20">
<path fill-rule="evenodd" clip-rule="evenodd" d="M6.25149 9.5H31.7479C32.5744 9.5 33.2505 10.1761 33.2505 11.0026V11.1641C33.2505 11.9906 32.5744 12.6667 31.7479 12.6667H6.25149C5.42499 12.6667 4.75049 11.9906 4.75049 11.1641V11.0026C4.75049 10.1761 5.42499 9.5 6.25149 9.5ZM31.7479 17.4167H6.25149C5.42499 17.4167 4.75049 18.0928 4.75049 18.9193V19.0808C4.75049 19.9073 5.42499 20.5833 6.25149 20.5833H31.7479C32.5744 20.5833 33.2505 19.9073 33.2505 19.0808V18.9193C33.2505 18.0928 32.5744 17.4167 31.7479 17.4167ZM31.7479 25.3333H6.25149C5.42499 25.3333 4.75049 26.0094 4.75049 26.8359V26.9974C4.75049 27.8239 5.42499 28.5 6.25149 28.5H31.7479C32.5744 28.5 33.2505 27.8239 33.2505 26.9974V26.8359C33.2505 26.0094 32.5744 25.3333 31.7479 25.3333Z" fill="white"/>
</mask>
<g mask="url(#mask0)">
<rect width="38" height="38" fill="white"/>
</g>
</svg>
