<svg width="32" height="32" viewBox="0 0 32 32" fill="none" xmlns="http://www.w3.org/2000/svg">
<path fill-rule="evenodd" clip-rule="evenodd" d="M20 14.6665H12C11.2667 14.6665 10.6667 15.2665 10.6667 15.9998C10.6667 16.7332 11.2667 17.3332 12 17.3332H20C20.7334 17.3332 21.3334 16.7332 21.3334 15.9998C21.3334 15.2665 20.7334 14.6665 20 14.6665ZM16 26.6665C10.1187 26.6665 5.33335 21.8812 5.33335 15.9998C5.33335 10.1185 10.1187 5.33317 16 5.33317C21.8814 5.33317 26.6667 10.1185 26.6667 15.9998C26.6667 21.8812 21.8814 26.6665 16 26.6665ZM16 2.6665C8.64802 2.6665 2.66669 8.64784 2.66669 15.9998C2.66669 23.3518 8.64802 29.3332 16 29.3332C23.352 29.3332 29.3334 23.3518 29.3334 15.9998C29.3334 8.64784 23.352 2.6665 16 2.6665Z" fill="#231F20"/>
<mask id="mask0" mask-type="alpha" maskUnits="userSpaceOnUse" x="2" y="2" width="28" height="28">
<path fill-rule="evenodd" clip-rule="evenodd" d="M20 14.6665H12C11.2667 14.6665 10.6667 15.2665 10.6667 15.9998C10.6667 16.7332 11.2667 17.3332 12 17.3332H20C20.7334 17.3332 21.3334 16.7332 21.3334 15.9998C21.3334 15.2665 20.7334 14.6665 20 14.6665ZM16 26.6665C10.1187 26.6665 5.33335 21.8812 5.33335 15.9998C5.33335 10.1185 10.1187 5.33317 16 5.33317C21.8814 5.33317 26.6667 10.1185 26.6667 15.9998C26.6667 21.8812 21.8814 26.6665 16 26.6665ZM16 2.6665C8.64802 2.6665 2.66669 8.64784 2.66669 15.9998C2.66669 23.3518 8.64802 29.3332 16 29.3332C23.352 29.3332 29.3334 23.3518 29.3334 15.9998C29.3334 8.64784 23.352 2.6665 16 2.6665Z" fill="white"/>
</mask>
<g mask="url(#mask0)">
<rect width="32" height="32" fill="#005EB8"/>
</g>
</svg>
