<svg width="32" height="32" viewBox="0 0 32 32" fill="none" xmlns="http://www.w3.org/2000/svg">
<path fill-rule="evenodd" clip-rule="evenodd" d="M20.0003 14.6665H12.0003C11.267 14.6665 10.667 15.2665 10.667 15.9998C10.667 16.7332 11.267 17.3332 12.0003 17.3332H20.0003C20.7337 17.3332 21.3337 16.7332 21.3337 15.9998C21.3337 15.2665 20.7337 14.6665 20.0003 14.6665ZM16.0003 26.6665C10.119 26.6665 5.33366 21.8812 5.33366 15.9998C5.33366 10.1185 10.119 5.33317 16.0003 5.33317C21.8817 5.33317 26.667 10.1185 26.667 15.9998C26.667 21.8812 21.8817 26.6665 16.0003 26.6665ZM16.0003 2.6665C8.64833 2.6665 2.66699 8.64784 2.66699 15.9998C2.66699 23.3518 8.64833 29.3332 16.0003 29.3332C23.3523 29.3332 29.3337 23.3518 29.3337 15.9998C29.3337 8.64784 23.3523 2.6665 16.0003 2.6665Z" fill="#231F20"/>
<mask id="mask0" mask-type="alpha" maskUnits="userSpaceOnUse" x="2" y="2" width="28" height="28">
<path fill-rule="evenodd" clip-rule="evenodd" d="M20.0003 14.6665H12.0003C11.267 14.6665 10.667 15.2665 10.667 15.9998C10.667 16.7332 11.267 17.3332 12.0003 17.3332H20.0003C20.7337 17.3332 21.3337 16.7332 21.3337 15.9998C21.3337 15.2665 20.7337 14.6665 20.0003 14.6665ZM16.0003 26.6665C10.119 26.6665 5.33366 21.8812 5.33366 15.9998C5.33366 10.1185 10.119 5.33317 16.0003 5.33317C21.8817 5.33317 26.667 10.1185 26.667 15.9998C26.667 21.8812 21.8817 26.6665 16.0003 26.6665ZM16.0003 2.6665C8.64833 2.6665 2.66699 8.64784 2.66699 15.9998C2.66699 23.3518 8.64833 29.3332 16.0003 29.3332C23.3523 29.3332 29.3337 23.3518 29.3337 15.9998C29.3337 8.64784 23.3523 2.6665 16.0003 2.6665Z" fill="white"/>
</mask>
<g mask="url(#mask0)">
<rect width="32" height="32" fill="white"/>
</g>
</svg>
