<svg width="48" height="48" viewBox="0 0 48 48" fill="none" xmlns="http://www.w3.org/2000/svg">
<g clip-path="url(#clip0)">
<path d="M47.605 6.05829C47.5765 6.03148 41.9382 0.654449 41.9382 0.654449C41.7227 0.447637 41.4998 0.233887 41.0835 0.233887H18.3848C17.7218 0.233887 17.1823 0.77323 17.1823 1.43623V5.12839L9.18218 6.49976C8.54093 6.61226 8.10968 7.22595 8.22077 7.86654L8.6268 10.2339C6.02646 11.109 3.35674 12.011 0.779459 12.9368C0.170459 13.1595 -0.149135 13.8366 0.0681778 14.4493L5.1949 28.7008C5.29802 28.9876 5.5683 29.1662 5.85658 29.1662C5.93552 29.1662 6.01596 29.1528 6.09452 29.1244C6.45996 28.993 6.64962 28.5903 6.51818 28.2248L1.4673 14.1841C3.89543 13.3147 6.40999 12.4639 8.86746 11.6367L11.2835 25.7222L14.0636 41.9439C14.164 42.5165 14.6673 42.924 15.2354 42.924C15.2997 42.924 15.365 42.9187 15.4304 42.908L22.9601 41.6158L28.8438 40.6072L19.9946 43.7879L13.0164 46.2969L7.59686 31.2229C7.46552 30.8575 7.06287 30.6679 6.69733 30.7992C6.3319 30.9305 6.14224 31.3333 6.27358 31.6987L11.77 46.9869C11.9457 47.4677 12.4012 47.7665 12.8826 47.7665C13.0156 47.7665 13.1507 47.7437 13.2823 47.6956L20.4702 45.1113L36.7916 39.2449L39.9096 38.7105H46.7975C47.4605 38.7105 47.9999 38.1699 47.9999 37.5054V6.85057C48 6.42973 47.7716 6.21504 47.605 6.05829ZM45.7421 6.22479H42.2236L42.1364 6.22517C41.968 6.22629 41.5736 6.2292 41.4735 6.12982C41.4505 6.10686 41.4235 6.03017 41.4235 5.88776L41.4153 2.09886L45.7421 6.22479ZM46.5938 37.304H18.5886V23.6009C18.5886 23.2126 18.2738 22.8978 17.8855 22.8978C17.4971 22.8978 17.1823 23.2126 17.1823 23.6009V37.5052C17.1823 38.1696 17.7218 38.7103 18.3848 38.7103H31.5859L22.7223 40.2296L15.4115 41.4843L12.6695 25.4844L9.64427 7.84723L17.1822 6.55507V20.3384C17.1822 20.7267 17.4971 21.0415 17.8854 21.0415C18.2737 21.0415 18.5885 20.7267 18.5885 20.3384V1.64004H40.008L40.0172 5.88936C40.0172 6.40442 40.1739 6.82104 40.4828 7.12779C40.9574 7.59907 41.6284 7.63189 42.0449 7.63189C42.0807 7.63189 42.1147 7.63161 42.1465 7.63142L46.5938 7.63114V37.304Z" fill="white"/>
<path d="M21.978 11.1519C21.978 11.5402 22.2928 11.855 22.6812 11.855H42.7845C43.1728 11.855 43.4877 11.5402 43.4877 11.1519C43.4877 10.7635 43.1728 10.4487 42.7845 10.4487H22.6812C22.2928 10.4487 21.978 10.7635 21.978 11.1519Z" fill="white"/>
<path d="M42.7845 15.4438H22.6812C22.2928 15.4438 21.978 15.7587 21.978 16.147C21.978 16.5353 22.2928 16.8501 22.6812 16.8501H42.7845C43.1728 16.8501 43.4877 16.5353 43.4877 16.147C43.4877 15.7587 43.1728 15.4438 42.7845 15.4438Z" fill="white"/>
<path d="M42.7845 20.439H22.6812C22.2928 20.439 21.978 20.7538 21.978 21.1421C21.978 21.5304 22.2928 21.8452 22.6812 21.8452H42.7845C43.1728 21.8452 43.4877 21.5304 43.4877 21.1421C43.4877 20.7538 43.1728 20.439 42.7845 20.439Z" fill="white"/>
<path d="M42.7845 25.4341H22.6812C22.2928 25.4341 21.978 25.7489 21.978 26.1372C21.978 26.5255 22.2928 26.8403 22.6812 26.8403H42.7845C43.1728 26.8403 43.4877 26.5255 43.4877 26.1372C43.4877 25.7489 43.1728 25.4341 42.7845 25.4341Z" fill="white"/>
<path d="M42.7845 30.4292H22.6812C22.2928 30.4292 21.978 30.744 21.978 31.1323C21.978 31.5206 22.2928 31.8354 22.6812 31.8354H42.7845C43.1728 31.8354 43.4877 31.5206 43.4877 31.1323C43.4877 30.744 43.1728 30.4292 42.7845 30.4292Z" fill="white"/>
</g>
<defs>
<clipPath id="clip0">
<rect width="48" height="48" fill="white"/>
</clipPath>
</defs>
</svg>
