<svg width="38" height="38" viewBox="0 0 38 38" fill="none" xmlns="http://www.w3.org/2000/svg">
<path fill-rule="evenodd" clip-rule="evenodd" d="M25.3334 11.0833C25.3334 14.5762 22.4929 17.4167 19.0001 17.4167C15.5072 17.4167 12.6667 14.5762 12.6667 11.0833C12.6667 7.5905 15.5072 4.75 19.0001 4.75C22.4929 4.75 25.3334 7.5905 25.3334 11.0833ZM30.0834 31.6667C30.0834 32.5407 29.3757 33.25 28.5001 33.25H9.50008C8.6245 33.25 7.91675 32.5407 7.91675 31.6667C7.91675 25.555 12.89 20.5833 19.0001 20.5833C25.1102 20.5833 30.0834 25.555 30.0834 31.6667Z" fill="#005EB8"/>
<mask id="mask0" mask-type="alpha" maskUnits="userSpaceOnUse" x="7" y="4" width="24" height="30">
<path fill-rule="evenodd" clip-rule="evenodd" d="M25.3334 11.0833C25.3334 14.5762 22.4929 17.4167 19.0001 17.4167C15.5072 17.4167 12.6667 14.5762 12.6667 11.0833C12.6667 7.5905 15.5072 4.75 19.0001 4.75C22.4929 4.75 25.3334 7.5905 25.3334 11.0833ZM30.0834 31.6667C30.0834 32.5407 29.3757 33.25 28.5001 33.25H9.50008C8.6245 33.25 7.91675 32.5407 7.91675 31.6667C7.91675 25.555 12.89 20.5833 19.0001 20.5833C25.1102 20.5833 30.0834 25.555 30.0834 31.6667Z" fill="white"/>
</mask>
<g mask="url(#mask0)">
<rect width="38" height="38" fill="white"/>
</g>
</svg>
