<svg width="78" height="78" viewBox="0 0 78 78" fill="none" xmlns="http://www.w3.org/2000/svg">
<g filter="url(#filter0_d)">

<mask id="mask0" mask-type="alpha" maskUnits="userSpaceOnUse" x="25" y="21" width="28" height="28">
<path fill-rule="evenodd" clip-rule="evenodd" d="M43.0003 36.3332H40.3337V38.9998C40.3337 39.7332 39.7337 40.3332 39.0003 40.3332C38.267 40.3332 37.667 39.7332 37.667 38.9998V36.3332H35.0003C34.267 36.3332 33.667 35.7332 33.667 34.9998C33.667 34.2665 34.267 33.6665 35.0003 33.6665H37.667V30.9998C37.667 30.2665 38.267 29.6665 39.0003 29.6665C39.7337 29.6665 40.3337 30.2665 40.3337 30.9998V33.6665H43.0003C43.7337 33.6665 44.3337 34.2665 44.3337 34.9998C44.3337 35.7332 43.7337 36.3332 43.0003 36.3332ZM39.0003 21.6665C31.6483 21.6665 25.667 27.6478 25.667 34.9998C25.667 42.3518 31.6483 48.3332 39.0003 48.3332C46.3523 48.3332 52.3337 42.3518 52.3337 34.9998C52.3337 27.6478 46.3523 21.6665 39.0003 21.6665Z" fill="white"/>
</mask>
<g mask="url(#mask0)">
<rect x="23" y="19" width="32" height="32" fill="white"/>
</g>
</g>
<defs>
<filter id="filter0_d" x="-2" y="-2" width="82" height="82" filterUnits="userSpaceOnUse" color-interpolation-filters="sRGB">
<feFlood flood-opacity="0" result="BackgroundImageFix"/>
<feColorMatrix in="SourceAlpha" type="matrix" values="0 0 0 0 0 0 0 0 0 0 0 0 0 0 0 0 0 0 127 0"/>
<feOffset dy="4"/>
<feGaussianBlur stdDeviation="12.5"/>
<feColorMatrix type="matrix" values="0 0 0 0 0 0 0 0 0 0.368627 0 0 0 0 0.721569 0 0 0 0.25 0"/>
<feBlend mode="normal" in2="BackgroundImageFix" result="effect1_dropShadow"/>
<feBlend mode="normal" in="SourceGraphic" in2="effect1_dropShadow" result="shape"/>
</filter>
</defs>
</svg>
