<svg width="32" height="32" viewBox="0 0 32 32" fill="none" xmlns="http://www.w3.org/2000/svg">
<path fill-rule="evenodd" clip-rule="evenodd" d="M20 17.3332H17.3334V19.9998C17.3334 20.7332 16.7334 21.3332 16 21.3332C15.2667 21.3332 14.6667 20.7332 14.6667 19.9998V17.3332H12C11.2667 17.3332 10.6667 16.7332 10.6667 15.9998C10.6667 15.2665 11.2667 14.6665 12 14.6665H14.6667V11.9998C14.6667 11.2665 15.2667 10.6665 16 10.6665C16.7334 10.6665 17.3334 11.2665 17.3334 11.9998V14.6665H20C20.7334 14.6665 21.3334 15.2665 21.3334 15.9998C21.3334 16.7332 20.7334 17.3332 20 17.3332ZM16 2.6665C8.64802 2.6665 2.66669 8.64784 2.66669 15.9998C2.66669 23.3518 8.64802 29.3332 16 29.3332C23.352 29.3332 29.3334 23.3518 29.3334 15.9998C29.3334 8.64784 23.352 2.6665 16 2.6665Z" fill="#231F20"/>
<mask id="mask0" mask-type="alpha" maskUnits="userSpaceOnUse" x="2" y="2" width="28" height="28">
<path fill-rule="evenodd" clip-rule="evenodd" d="M20 17.3332H17.3334V19.9998C17.3334 20.7332 16.7334 21.3332 16 21.3332C15.2667 21.3332 14.6667 20.7332 14.6667 19.9998V17.3332H12C11.2667 17.3332 10.6667 16.7332 10.6667 15.9998C10.6667 15.2665 11.2667 14.6665 12 14.6665H14.6667V11.9998C14.6667 11.2665 15.2667 10.6665 16 10.6665C16.7334 10.6665 17.3334 11.2665 17.3334 11.9998V14.6665H20C20.7334 14.6665 21.3334 15.2665 21.3334 15.9998C21.3334 16.7332 20.7334 17.3332 20 17.3332ZM16 2.6665C8.64802 2.6665 2.66669 8.64784 2.66669 15.9998C2.66669 23.3518 8.64802 29.3332 16 29.3332C23.352 29.3332 29.3334 23.3518 29.3334 15.9998C29.3334 8.64784 23.352 2.6665 16 2.6665Z" fill="white"/>
</mask>
<g mask="url(#mask0)">
<rect width="32" height="32" fill="#00A9E0"/>
</g>
</svg>
