<svg width="92" height="159" viewBox="0 0 92 159" fill="none" xmlns="http://www.w3.org/2000/svg">
<path d="M52.2032 133.374L39.0375 121.062L26.0248 133.374L39.0375 159L52.2032 133.374Z" fill="#E4002B"/>
<path d="M39.0384 50.6287C33.9865 50.6287 29.8531 54.4941 29.8531 59.2185C29.8531 63.9429 33.9865 67.8083 39.0384 67.8083C44.0904 67.8083 48.2238 63.9429 48.2238 59.2185C48.0707 54.4941 44.0904 50.6287 39.0384 50.6287Z" fill="#005EB8"/>
<path d="M39.0379 12.4033C36.2823 13.6918 0 31.5869 0 60.3622C0 84.8427 21.2795 122.064 21.2795 122.064L39.0379 105.458L56.7963 122.064C56.7963 122.064 78.0758 84.8427 78.0758 60.3622C78.0758 31.73 41.7935 13.6918 39.0379 12.4033ZM50.8258 94.1481L39.191 83.2679L27.5562 94.1481C26.9438 92.5734 19.1362 72.8172 19.1362 59.9327C19.1362 42.4671 37.8132 32.7322 39.191 32.0163C40.5688 32.7322 59.2458 42.4671 59.2458 59.9327C59.2458 72.8172 51.4382 92.7165 50.8258 94.1481Z" fill="#005EB8"/>
<path d="M78.1794 3.92875e-05L64.8646 12.4512L78.1794 24.9023L91.4941 12.4512L78.1794 3.92875e-05Z" fill="#005EB8"/>
</svg>
