<svg width="198" height="228" viewBox="0 0 198 228" fill="none" xmlns="http://www.w3.org/2000/svg">
<g filter="url(#filter0_d)">
<path d="M30.6968 185.415C30.6968 185.415 34.8856 215.761 64.2005 210.774C93.5154 205.788 136.524 212.665 186.413 158.928L30.6968 185.415Z" fill="url(#paint0_linear)"/>
<path d="M85.7839 169.867C85.7839 169.867 127.599 63.9025 62.3183 18.568C62.3183 18.568 185.962 30.4311 179.56 153.915C179.56 153.915 115.958 137.517 85.7839 169.867Z" fill="url(#paint1_linear)"/>
<path d="M54.7528 19.8547C54.7528 19.8547 114.203 72.8601 72.5445 172.118C72.5445 172.118 51.6833 161.975 31.7243 179.062C31.7243 179.062 71.9655 116.279 54.7528 19.8547Z" fill="url(#paint2_linear)"/>
</g>
<defs>
<filter id="filter0_d" x="0.0522461" y="0.327148" width="197.843" height="227.323" filterUnits="userSpaceOnUse" color-interpolation-filters="sRGB">
<feFlood flood-opacity="0" result="BackgroundImageFix"/>
<feColorMatrix in="SourceAlpha" type="matrix" values="0 0 0 0 0 0 0 0 0 0 0 0 0 0 0 0 0 0 127 0"/>
<feOffset dy="4"/>
<feGaussianBlur stdDeviation="3"/>
<feColorMatrix type="matrix" values="0 0 0 0 0 0 0 0 0 0 0 0 0 0 0 0 0 0 0.25 0"/>
<feBlend mode="normal" in2="BackgroundImageFix" result="effect1_dropShadow"/>
<feBlend mode="normal" in="SourceGraphic" in2="effect1_dropShadow" result="shape"/>
</filter>
<linearGradient id="paint0_linear" x1="36.6329" y1="205.366" x2="176.282" y2="153.569" gradientUnits="userSpaceOnUse">
<stop stop-color="#005EB8"/>
<stop offset="1" stop-color="#0099D1"/>
</linearGradient>
<linearGradient id="paint1_linear" x1="76.402" y1="170.526" x2="142.024" y2="53.3189" gradientUnits="userSpaceOnUse">
<stop stop-color="#00A9E0"/>
<stop offset="1" stop-color="#4EE0FF"/>
</linearGradient>
<linearGradient id="paint2_linear" x1="58.4697" y1="171.727" x2="89.6941" y2="15.1108" gradientUnits="userSpaceOnUse">
<stop stop-color="#00A9E0"/>
<stop offset="1" stop-color="#4EE0FF"/>
</linearGradient>
</defs>
</svg>
