<svg width="20" height="20" viewBox="0 0 20 20" fill="none" xmlns="http://www.w3.org/2000/svg">
<path fill-rule="evenodd" clip-rule="evenodd" d="M0 2C0 0.895431 0.895431 0 2 0H18C19.1046 0 20 0.895431 20 2V18C20 19.1046 19.1046 20 18 20H2C0.895431 20 0 19.1046 0 18V2ZM7.25203 16.1582C5.5598 16.1582 3.98116 15.6699 2.65026 14.826C2.64978 14.8257 2.64925 14.8254 2.6487 14.8253C3.58676 14.9653 4.4249 14.8398 5.11328 14.6218C5.92493 14.3649 5.66091 13.2862 5.05496 12.6882C4.75717 12.3943 4.56982 12.0816 4.45723 11.8437C4.37114 11.6617 4.78393 11.5024 4.9851 11.4961C5.26245 11.4874 5.02192 11.2076 4.7751 11.0808C3.641 10.498 3.34349 9.48818 3.27054 8.8862C3.24295 8.65855 3.68531 8.60577 3.90603 8.66798C4.1886 8.74763 4.13147 8.37779 3.94958 8.14734C3.35616 7.3955 3.218 6.68021 3.25683 6.10411C3.30484 5.39172 4.14056 5.32286 4.68226 5.78802C6.34156 7.21288 8.22263 7.68677 9.21362 7.84309C9.55649 7.89717 9.81968 7.58138 9.81968 7.23427C9.81968 5.5667 11.172 4.21481 12.8408 4.21481C13.5443 4.21481 14.1914 4.45495 14.7048 4.85799C14.9287 5.03374 15.2187 5.1242 15.4888 5.03446C16.1051 4.82892 16.5861 5.29765 16.104 5.73311C15.8701 5.9443 15.6724 6.07868 15.6408 6.09978C15.6397 6.10056 15.6403 6.10228 15.6416 6.10228C16.2614 6.04028 16.6286 6.54843 16.1528 6.95053C16.1444 6.95768 16.136 6.96472 16.1278 6.97164C15.9581 7.11434 15.8615 7.32701 15.8615 7.54875C15.8615 12.3033 12.007 16.1582 7.25203 16.1582Z" fill="#00A9E0"/>
</svg>
