<svg width="37" height="36" viewBox="0 0 37 36" fill="none" xmlns="http://www.w3.org/2000/svg">
<path fill-rule="evenodd" clip-rule="evenodd" d="M0.392273 2C0.392273 0.895431 1.2877 0 2.39227 0H34.3923C35.4968 0 36.3923 0.895431 36.3923 2V34C36.3923 35.1046 35.4968 36 34.3923 36H2.39227C1.2877 36 0.392273 35.1046 0.392273 34V2ZM13.4459 29.0848C10.3999 29.0848 7.55836 28.2058 5.16275 26.6867C5.16188 26.6862 5.16093 26.6858 5.15994 26.6855C6.84845 26.9376 8.3571 26.7116 9.59618 26.3193C11.0572 25.8568 10.5819 23.9153 9.49121 22.8388C8.95519 22.3098 8.61796 21.7469 8.4153 21.3186C8.26033 20.9912 9.00335 20.7043 9.36545 20.693C9.8647 20.6774 9.43173 20.1736 8.98746 19.9454C6.94607 18.8964 6.41056 17.0787 6.27925 15.9952C6.22959 15.5854 7.02585 15.4904 7.42313 15.6024C7.93177 15.7457 7.82893 15.08 7.50152 14.6652C6.43336 13.3119 6.18468 12.0244 6.25457 10.9874C6.341 9.70509 7.84528 9.58115 8.82034 10.4184C11.8071 12.9832 15.193 13.8362 16.9768 14.1176C17.594 14.2149 18.0677 13.6465 18.0677 13.0217C18.0677 10.0201 20.5018 7.58666 23.5057 7.58666C24.772 7.58666 25.9368 8.01892 26.861 8.74439C27.264 9.06073 27.7859 9.22356 28.2721 9.06203C29.3814 8.69206 30.2472 9.53577 29.3794 10.3196C28.9585 10.6998 28.6026 10.9416 28.5457 10.9796C28.5437 10.981 28.5448 10.9841 28.5472 10.9841C29.6629 10.8725 30.3237 11.7872 29.4674 12.511C29.4521 12.5238 29.4371 12.5365 29.4223 12.549C29.1168 12.8058 28.943 13.1886 28.943 13.5878C28.943 22.1459 22.0049 29.0848 13.4459 29.0848Z" fill="white"/>
</svg>
