<svg width="37" height="36" viewBox="0 0 37 36" fill="none" xmlns="http://www.w3.org/2000/svg">
<path fill-rule="evenodd" clip-rule="evenodd" d="M0.392273 2C0.392273 0.895431 1.2877 0 2.39227 0H34.3923C35.4968 0 36.3923 0.895431 36.3923 2V34C36.3923 35.1046 35.4968 36 34.3923 36H2.39227C1.2877 36 0.392273 35.1046 0.392273 34V2ZM13.3294 16.6661C12.0712 15.0906 11.1159 13.3356 10.3622 11.4741C10.0969 10.8207 9.66761 10.555 9.038 10.5209C8.97237 10.5174 5.02656 10.4351 4.81441 10.5177C4.4741 10.6501 4.37438 11.0349 4.48128 11.4376C4.51344 11.5579 5.71021 14.1045 5.7706 14.2255C6.95219 16.5919 8.24641 18.8909 9.88494 20.9823C10.9164 22.299 12.1072 23.4281 13.5984 24.2265C15.3577 25.1692 17.2463 25.3865 19.1953 25.2807C19.8704 25.2435 20.2539 24.8594 20.2967 24.2568C20.3049 24.1415 20.4806 22.7921 20.684 22.2782C20.922 21.6799 21.422 21.5937 21.9315 21.9822C22.1474 22.1466 22.3477 22.3349 22.5353 22.5314C22.7584 22.7648 22.9771 23.0025 23.1958 23.2401C23.5879 23.6661 23.9798 24.092 24.3962 24.4929C24.9793 25.054 25.7035 25.3406 26.5297 25.3443C26.5527 25.3444 26.6367 25.3463 26.7656 25.3493C27.5271 25.3668 29.8525 25.4203 30.3904 25.3443C31.3904 25.2026 31.721 24.4067 31.1858 23.5616C30.7626 22.8935 30.2683 22.2588 29.7343 21.6737C29.3011 21.1997 28.841 20.7506 28.3808 20.3015C28.0603 19.9887 27.7397 19.6759 27.4282 19.3545C26.9515 18.8627 26.9288 18.5315 27.2557 17.9408C27.3471 17.7765 27.4453 17.6147 27.5567 17.4629C27.8531 17.0589 28.1518 16.6567 28.4505 16.2545C29.0328 15.4705 29.6151 14.6865 30.1795 13.8899C30.7116 13.1386 31.2084 12.3572 31.4156 11.4378C31.5044 11.0454 31.3539 10.7362 30.9748 10.6153C30.7412 10.541 30.4824 10.5177 30.2349 10.5164C28.8394 10.512 27.444 10.5133 26.0485 10.5164C25.3061 10.5183 25.0964 10.6682 24.8225 11.3583C24.2929 12.6958 23.6777 13.993 22.854 15.175C22.4006 15.8249 21.9176 16.4647 21.3698 17.0333C20.9384 17.481 20.5165 17.3254 20.3798 16.7058C20.2822 16.2612 20.2488 15.7933 20.2545 15.3368C20.2623 14.6495 20.2851 13.9623 20.3079 13.2749C20.3236 12.799 20.3394 12.323 20.3502 11.8469C20.3566 11.5761 20.3332 11.3009 20.2879 11.0333C20.2003 10.5144 19.9157 10.1416 19.3842 10.0257C18.9768 9.93693 18.5605 9.90359 18.1468 9.8998C17.8846 9.8972 17.6223 9.89229 17.3599 9.88738C16.6057 9.87327 15.851 9.85915 15.0983 9.8998C14.4724 9.9332 13.8951 10.0176 13.4808 10.5472C13.2817 10.8016 13.3105 11.0566 13.6203 11.1126C14.6235 11.2934 14.866 11.8922 14.9031 12.5742C14.9604 13.639 14.9842 14.3377 14.9635 15.4039C14.9559 15.8119 14.8281 16.5993 14.6889 16.9879C14.5573 17.3581 14.2519 17.4363 13.9283 17.214C13.7067 17.0622 13.4963 16.8758 13.3294 16.6661Z" fill="white"/>
</svg>
