<svg width="20" height="20" viewBox="0 0 20 20" fill="none" xmlns="http://www.w3.org/2000/svg">
<path fill-rule="evenodd" clip-rule="evenodd" d="M0 2C0 0.895431 0.895431 0 2 0H18C19.1046 0 20 0.895431 20 2V18C20 19.1046 19.1046 20 18 20H2C0.895431 20 0 19.1046 0 18V2ZM7.1873 9.25896C6.4883 8.38368 5.95759 7.40866 5.53883 6.37453C5.39148 6.01147 5.15296 5.8639 4.80317 5.84496C4.76671 5.843 2.5746 5.7973 2.45674 5.84316C2.26768 5.91673 2.21227 6.13048 2.27166 6.35424C2.28953 6.42107 2.9544 7.83586 2.98795 7.90307C3.64439 9.21775 4.3634 10.4949 5.2737 11.6568C5.84674 12.3883 6.50828 13.0156 7.33672 13.4592C8.31415 13.9829 9.36335 14.1036 10.4461 14.0448C10.8212 14.0242 11.0342 13.8108 11.058 13.476C11.0626 13.412 11.1602 12.6623 11.2732 12.3768C11.4054 12.0444 11.6832 11.9965 11.9662 12.2123C12.0862 12.3037 12.1974 12.4083 12.3017 12.5174C12.4256 12.6471 12.5471 12.7791 12.6686 12.9112C12.8864 13.1478 13.1042 13.3844 13.3355 13.6072C13.6595 13.9189 14.0618 14.0781 14.5208 14.0802C14.5335 14.0802 14.5803 14.0813 14.6519 14.0829C15.0749 14.0927 16.3668 14.1224 16.6656 14.0802C17.2212 14.0015 17.4049 13.5593 17.1075 13.0898C16.8724 12.7186 16.5978 12.366 16.3011 12.041C16.0604 11.7776 15.8048 11.5281 15.5492 11.2786C15.3711 11.1048 15.193 10.931 15.02 10.7525C14.7551 10.4793 14.7425 10.2953 14.9241 9.96712C14.9749 9.87584 15.0294 9.78592 15.0914 9.70161C15.256 9.47717 15.422 9.2537 15.588 9.03023C15.9114 8.59467 16.2349 8.15915 16.5484 7.71662C16.844 7.29924 17.1201 6.8651 17.2352 6.35432C17.2845 6.13635 17.2009 5.96458 16.9903 5.89741C16.8605 5.85612 16.7167 5.84316 16.5792 5.84247C15.804 5.84001 15.0287 5.8407 14.2535 5.84247C13.841 5.8435 13.7245 5.92678 13.5723 6.31019C13.2781 7.05324 12.9363 7.7739 12.4787 8.43057C12.2269 8.79159 11.9585 9.14705 11.6542 9.46294C11.4145 9.71166 11.1801 9.62524 11.1042 9.28101C11.0499 9.03402 11.0314 8.77407 11.0346 8.52044C11.0389 8.13864 11.0516 7.75684 11.0642 7.37497C11.073 7.11055 11.0817 6.84611 11.0877 6.58161C11.0913 6.43116 11.0783 6.27829 11.0531 6.1296C11.0045 5.84135 10.8463 5.63424 10.5511 5.56986C10.3247 5.52052 10.0935 5.502 9.86362 5.49989C9.71797 5.49844 9.57223 5.49572 9.42645 5.49299C9.00744 5.48515 8.58816 5.4773 8.17002 5.49989C7.82227 5.51845 7.50158 5.56534 7.27138 5.85957C7.16081 6.00089 7.1768 6.14256 7.34891 6.1737C7.90623 6.27411 8.04093 6.6068 8.06155 6.98568C8.09338 7.57725 8.10664 7.96541 8.0951 8.55771C8.09089 8.78438 8.01992 9.22185 7.94258 9.43771C7.86947 9.64341 7.69981 9.68681 7.51999 9.56332C7.39687 9.479 7.28001 9.37545 7.1873 9.25896Z" fill="#005EB8"/>
</svg>
